<?xml version="1.0" encoding="UTF-8"?>
<svg id="Layer_1" data-name="Layer 1" xmlns="http://www.w3.org/2000/svg" viewBox="0 0 346.23 483.51">
  <defs>
    <style>
      .cls-1 {
        stroke-linejoin: bevel;
        stroke-width: .29px;
      }

      .cls-1, .cls-2 {
        stroke: #6c6d6d;
      }

      .cls-1, .cls-2, .cls-3, .cls-4, .cls-5 {
        fill: none;
      }

      .cls-2 {
        stroke-width: .14px;
      }

      .cls-2, .cls-3, .cls-4, .cls-5 {
        stroke-linecap: round;
        stroke-linejoin: round;
      }

      .cls-6 {
        fill: #231f20;
      }

      .cls-7 {
        fill: #010101;
        fill-rule: evenodd;
      }

      .cls-3 {
        stroke: #010101;
      }

      .cls-3, .cls-4, .cls-5 {
        stroke-width: .37px;
      }

      .cls-4 {
        stroke: #979797;
      }

      .cls-5 {
        stroke: #c1c0c0;
      }

      .cls-8 {
        fill: #6c6d6d;
      }
    </style>
  </defs>
  <path class="cls-8" d="M163.82,24.06h.34v2.38h1.14v.29h-1.49v-2.66Z"/>
  <path class="cls-8" d="M168.3,25.36c0,.92-.56,1.4-1.24,1.4s-1.2-.55-1.2-1.35c0-.85.53-1.4,1.24-1.4s1.2.56,1.2,1.35ZM166.23,25.41c0,.57.31,1.08.85,1.08s.86-.5.86-1.11c0-.53-.28-1.08-.85-1.08s-.86.53-.86,1.11Z"/>
  <path class="cls-8" d="M169.53,26.72l-.68-2.66h.36l.32,1.35c.08.33.15.66.2.92h0c.04-.27.13-.58.22-.92l.36-1.34h.36l.33,1.35c.08.32.15.63.19.91h0c.06-.29.13-.59.21-.92l.35-1.34h.35l-.76,2.66h-.36l-.34-1.39c-.08-.34-.14-.6-.17-.87h0c-.05.27-.11.53-.21.87l-.38,1.39h-.36Z"/>
  <path class="cls-8" d="M173.34,24.35h-.81v-.29h1.98v.29h-.82v2.37h-.35v-2.37Z"/>
  <path class="cls-8" d="M175.6,24.06v1.11h1.29v-1.11h.35v2.66h-.35v-1.25h-1.29v1.25h-.34v-2.66h.34Z"/>
  <path class="cls-8" d="M179.5,25.47h-1.04v.96h1.16v.29h-1.5v-2.66h1.44v.29h-1.1v.84h1.04v.28Z"/>
  <path class="cls-8" d="M180.76,24.09c.17-.04.42-.06.66-.06.37,0,.61.07.77.22.13.12.21.3.21.51,0,.35-.22.58-.5.68h0c.21.08.33.27.39.55.09.37.15.63.21.73h-.36c-.04-.08-.1-.3-.18-.64-.08-.37-.22-.51-.54-.52h-.33v1.15h-.34v-2.63ZM181.1,25.31h.35c.37,0,.6-.2.6-.51,0-.34-.25-.49-.62-.5-.17,0-.29.02-.34.03v.97Z"/>
  <line class="cls-1" x1="163.52" y1="26.88" x2="183.28" y2="26.88"/>
  <line class="cls-3" x1="118.69" y1="379.98" x2="139.1" y2="379.98"/>
  <line class="cls-3" x1="207.14" y1="379.98" x2="227.55" y2="379.98"/>
  <line class="cls-3" x1="176.66" y1="430.84" x2="176.66" y2="410.44"/>
  <line class="cls-3" x1="139.95" y1="379.13" x2="139.95" y2="373.75"/>
  <line class="cls-3" x1="175.81" y1="409.59" x2="170.42" y2="409.59"/>
  <line class="cls-3" x1="139.1" y1="372.9" x2="118.69" y2="372.9"/>
  <line class="cls-3" x1="227.55" y1="372.9" x2="207.14" y2="372.9"/>
  <line class="cls-3" x1="169.57" y1="410.44" x2="169.57" y2="430.84"/>
  <line class="cls-3" x1="206.29" y1="373.75" x2="206.29" y2="379.13"/>
  <line class="cls-3" x1="145.19" y1="373.75" x2="145.19" y2="375.16"/>
  <line class="cls-3" x1="145.19" y1="377.71" x2="145.19" y2="379.13"/>
  <line class="cls-3" x1="201.04" y1="373.75" x2="201.04" y2="375.16"/>
  <line class="cls-3" x1="201.04" y1="377.71" x2="201.04" y2="379.13"/>
  <line class="cls-3" x1="59.58" y1="448.69" x2="74.03" y2="448.69"/>
  <polyline class="cls-3" points="207.14 372.9 207.02 372.91 206.9 372.93 206.79 372.97 206.68 373.03 206.58 373.1 206.5 373.18 206.43 373.28 206.37 373.38 206.32 373.5 206.3 373.61 206.29 373.73 206.29 373.75"/>
  <polyline class="cls-3" points="201.89 372.9 201.77 372.91 201.65 372.93 201.54 372.97 201.44 373.03 201.34 373.1 201.25 373.18 201.18 373.28 201.12 373.38 201.08 373.5 201.05 373.61 201.04 373.73 201.04 373.75"/>
  <polyline class="cls-3" points="144.34 372.9 144.46 372.91 144.58 372.93 144.69 372.97 144.8 373.03 144.89 373.1 144.98 373.18 145.05 373.28 145.11 373.38 145.15 373.5 145.18 373.61 145.19 373.73 145.19 373.75"/>
  <polyline class="cls-3" points="206.29 379.13 206.29 379.25 206.32 379.37 206.36 379.48 206.42 379.59 206.49 379.68 206.57 379.77 206.67 379.84 206.77 379.9 206.88 379.94 207 379.97 207.12 379.98 207.14 379.98"/>
  <polyline class="cls-3" points="201.04 379.13 201.05 379.25 201.07 379.37 201.12 379.48 201.17 379.59 201.24 379.68 201.33 379.77 201.42 379.84 201.53 379.9 201.64 379.94 201.76 379.97 201.87 379.98 201.89 379.98"/>
  <polyline class="cls-3" points="145.19 379.13 145.18 379.25 145.16 379.37 145.12 379.48 145.06 379.59 144.99 379.68 144.9 379.77 144.81 379.84 144.71 379.9 144.59 379.94 144.48 379.97 144.36 379.98 144.34 379.98"/>
  <line class="cls-3" x1="74.03" y1="448.69" x2="272.2" y2="448.69"/>
  <line class="cls-3" x1="273.62" y1="447.28" x2="273.62" y2="437.36"/>
  <polyline class="cls-3" points="139.1 372.9 139.22 372.91 139.33 372.93 139.45 372.97 139.55 373.03 139.65 373.1 139.73 373.18 139.81 373.28 139.87 373.38 139.91 373.5 139.94 373.61 139.95 373.73 139.95 373.75"/>
  <line class="cls-3" x1="272.2" y1="435.94" x2="133.57" y2="435.94"/>
  <polyline class="cls-3" points="139.1 379.98 139.22 379.97 139.33 379.95 139.45 379.91 139.55 379.85 139.65 379.78 139.73 379.69 139.81 379.6 139.87 379.5 139.91 379.38 139.94 379.27 139.95 379.15 139.95 379.13"/>
  <line class="cls-3" x1="130.16" y1="435.94" x2="59.58" y2="435.94"/>
  <polyline class="cls-3" points="176.66 410.44 176.65 410.32 176.63 410.2 176.58 410.09 176.53 409.99 176.46 409.89 176.37 409.8 176.28 409.73 176.17 409.67 176.06 409.63 175.94 409.6 175.83 409.59 175.81 409.59"/>
  <line class="cls-3" x1="58.16" y1="437.36" x2="58.16" y2="447.28"/>
  <polyline class="cls-3" points="170.42 409.59 170.3 409.6 170.19 409.62 170.07 409.67 169.97 409.72 169.87 409.79 169.79 409.88 169.71 409.97 169.65 410.08 169.61 410.19 169.58 410.31 169.57 410.42 169.57 410.44"/>
  <line class="cls-3" x1="171.84" y1="366.13" x2="171.84" y2="409.59"/>
  <line class="cls-3" x1="142.54" y1="377.71" x2="171.84" y2="377.71"/>
  <line class="cls-3" x1="174.39" y1="377.71" x2="203.69" y2="377.71"/>
  <line class="cls-3" x1="174.39" y1="366.13" x2="174.39" y2="409.59"/>
  <line class="cls-3" x1="142.54" y1="375.16" x2="171.84" y2="375.16"/>
  <line class="cls-3" x1="174.39" y1="375.16" x2="203.69" y2="375.16"/>
  <path class="cls-5" d="M176.56,27.38h7.12M171.88,27.38h2.34M162.42,27.38h7.12"/>
  <polyline class="cls-3" points="59.58 435.94 59.46 435.95 59.34 435.96 59.22 435.99 59.11 436.02 58.99 436.07 58.89 436.12 58.78 436.18 58.69 436.25 58.6 436.33 58.51 436.42 58.44 436.51 58.37 436.61 58.31 436.72 58.26 436.83 58.22 436.94 58.19 437.05 58.17 437.17 58.16 437.29 58.16 437.36"/>
  <polyline class="cls-3" points="58.16 447.28 58.16 447.4 58.18 447.51 58.2 447.63 58.24 447.75 58.28 447.86 58.34 447.96 58.4 448.07 58.47 448.16 58.55 448.25 58.64 448.34 58.73 448.41 58.83 448.48 58.93 448.54 59.04 448.59 59.16 448.63 59.27 448.66 59.39 448.68 59.51 448.69 59.58 448.69"/>
  <polyline class="cls-3" points="272.2 435.94 272.32 435.95 272.44 435.96 272.55 435.99 272.67 436.02 272.78 436.07 272.89 436.12 272.99 436.18 273.09 436.25 273.18 436.33 273.26 436.42 273.33 436.51 273.4 436.61 273.46 436.72 273.51 436.83 273.55 436.94 273.58 437.05 273.6 437.17 273.61 437.29 273.62 437.36"/>
  <polyline class="cls-3" points="273.62 447.28 273.61 447.4 273.59 447.51 273.57 447.63 273.53 447.75 273.49 447.86 273.44 447.96 273.37 448.07 273.3 448.16 273.22 448.25 273.14 448.34 273.04 448.41 272.94 448.48 272.84 448.54 272.73 448.59 272.62 448.63 272.5 448.66 272.38 448.68 272.26 448.69 272.2 448.69"/>
  <line class="cls-2" x1="263.72" y1="457.06" x2="255.17" y2="457.06"/>
  <line class="cls-2" x1="82.52" y1="457.06" x2="91.07" y2="457.06"/>
  <line class="cls-2" x1="263.72" y1="453.64" x2="260.72" y2="453.64"/>
  <line class="cls-2" x1="82.52" y1="453.64" x2="85.51" y2="453.64"/>
  <line class="cls-2" x1="258.16" y1="453.64" x2="255.17" y2="453.64"/>
  <line class="cls-2" x1="88.07" y1="453.64" x2="91.07" y2="453.64"/>
  <line class="cls-2" x1="254.74" y1="456.63" x2="254.74" y2="455.35"/>
  <line class="cls-2" x1="91.49" y1="456.63" x2="91.49" y2="455.35"/>
  <line class="cls-2" x1="254.74" y1="454.07" x2="254.74" y2="455.35"/>
  <line class="cls-2" x1="91.49" y1="454.07" x2="91.49" y2="455.35"/>
  <line class="cls-2" x1="264.14" y1="455.35" x2="264.14" y2="456.63"/>
  <line class="cls-2" x1="82.09" y1="455.35" x2="82.09" y2="456.63"/>
  <line class="cls-2" x1="264.14" y1="455.35" x2="264.14" y2="454.07"/>
  <line class="cls-2" x1="82.09" y1="455.35" x2="82.09" y2="454.07"/>
  <line class="cls-2" x1="263.63" y1="448.69" x2="260.71" y2="448.69"/>
  <line class="cls-2" x1="82.6" y1="448.69" x2="85.52" y2="448.69"/>
  <line class="cls-2" x1="258.16" y1="448.69" x2="255.25" y2="448.69"/>
  <line class="cls-2" x1="88.07" y1="448.69" x2="90.98" y2="448.69"/>
  <line class="cls-2" x1="255.25" y1="449.33" x2="258.17" y2="449.33"/>
  <line class="cls-2" x1="90.98" y1="449.33" x2="88.07" y2="449.33"/>
  <line class="cls-2" x1="260.71" y1="449.33" x2="263.63" y2="449.33"/>
  <line class="cls-2" x1="85.52" y1="449.33" x2="82.6" y2="449.33"/>
  <line class="cls-2" x1="260.71" y1="449.33" x2="261.14" y2="449.33"/>
  <line class="cls-2" x1="85.52" y1="449.33" x2="85.09" y2="449.33"/>
  <line class="cls-2" x1="257.74" y1="449.33" x2="258.17" y2="449.33"/>
  <line class="cls-2" x1="88.49" y1="449.33" x2="88.07" y2="449.33"/>
  <line class="cls-2" x1="263.72" y1="457.06" x2="264.14" y2="456.63"/>
  <line class="cls-2" x1="82.52" y1="457.06" x2="82.09" y2="456.63"/>
  <line class="cls-2" x1="263.72" y1="453.64" x2="264.14" y2="454.07"/>
  <line class="cls-2" x1="82.52" y1="453.64" x2="82.09" y2="454.07"/>
  <line class="cls-2" x1="254.74" y1="456.63" x2="255.17" y2="457.06"/>
  <line class="cls-2" x1="91.49" y1="456.63" x2="91.07" y2="457.06"/>
  <line class="cls-2" x1="254.74" y1="454.07" x2="255.17" y2="453.64"/>
  <line class="cls-2" x1="91.49" y1="454.07" x2="91.07" y2="453.64"/>
  <line class="cls-2" x1="258.16" y1="453.63" x2="258.16" y2="448.69"/>
  <line class="cls-2" x1="88.07" y1="453.63" x2="88.07" y2="448.69"/>
  <line class="cls-2" x1="260.71" y1="448.69" x2="260.72" y2="453.62"/>
  <line class="cls-2" x1="85.52" y1="448.69" x2="85.51" y2="453.62"/>
  <line class="cls-2" x1="263.63" y1="449.33" x2="263.63" y2="448.69"/>
  <line class="cls-2" x1="82.6" y1="449.33" x2="82.6" y2="448.69"/>
  <line class="cls-2" x1="255.25" y1="449.33" x2="255.25" y2="448.69"/>
  <line class="cls-2" x1="90.98" y1="449.33" x2="90.98" y2="448.69"/>
  <line class="cls-2" x1="133" y1="430.84" x2="130.73" y2="430.84"/>
  <line class="cls-2" x1="213.23" y1="430.84" x2="215.5" y2="430.84"/>
  <line class="cls-2" x1="129.6" y1="430.84" x2="134.14" y2="430.84"/>
  <line class="cls-2" x1="216.63" y1="430.84" x2="212.1" y2="430.84"/>
  <line class="cls-2" x1="134.14" y1="430.84" x2="134.14" y2="430.42"/>
  <line class="cls-2" x1="212.1" y1="430.84" x2="212.1" y2="430.42"/>
  <polyline class="cls-2" points="260.72 453.62 260.77 453.73 260.81 453.85 260.83 453.97 260.85 454.08 260.86 454.2 260.86 454.32 260.84 454.44 260.82 454.56 260.79 454.68 260.74 454.79 260.69 454.9 260.63 455 260.56 455.1 260.48 455.19 260.4 455.27 260.31 455.35 260.21 455.42 260.11 455.48 260 455.53 259.89 455.57 259.77 455.61 259.65 455.63 259.53 455.64 259.41 455.65 259.29 455.64 259.17 455.62 259.06 455.59 258.94 455.56 258.83 455.51 258.73 455.45 258.63 455.39 258.53 455.32 258.44 455.23 258.36 455.15 258.29 455.05 258.22 454.95 258.17 454.85 258.12 454.74 258.08 454.62 258.05 454.51 258.03 454.39 258.02 454.27 258.03 454.15 258.04 454.03 258.06 453.91 258.09 453.79 258.13 453.68 258.16 453.63"/>
  <polyline class="cls-2" points="85.51 453.62 85.46 453.73 85.43 453.85 85.4 453.97 85.38 454.08 85.37 454.2 85.38 454.32 85.39 454.44 85.41 454.56 85.45 454.68 85.49 454.79 85.54 454.9 85.6 455 85.67 455.1 85.75 455.19 85.83 455.27 85.92 455.35 86.02 455.42 86.13 455.48 86.23 455.53 86.35 455.57 86.46 455.61 86.58 455.63 86.7 455.64 86.82 455.65 86.94 455.64 87.06 455.62 87.17 455.59 87.29 455.56 87.4 455.51 87.5 455.45 87.61 455.39 87.7 455.32 87.79 455.23 87.87 455.15 87.94 455.05 88.01 454.95 88.07 454.85 88.11 454.74 88.15 454.62 88.18 454.51 88.2 454.39 88.21 454.27 88.21 454.15 88.19 454.03 88.17 453.91 88.14 453.79 88.1 453.68 88.07 453.63"/>
  <line class="cls-2" x1="133.71" y1="430.13" x2="130.02" y2="430.13"/>
  <line class="cls-2" x1="212.52" y1="430.13" x2="216.21" y2="430.13"/>
  <line class="cls-2" x1="129.6" y1="430.42" x2="129.6" y2="430.84"/>
  <line class="cls-2" x1="216.63" y1="430.42" x2="216.63" y2="430.84"/>
  <line class="cls-2" x1="130.02" y1="430.13" x2="129.6" y2="430.42"/>
  <line class="cls-2" x1="216.21" y1="430.13" x2="216.63" y2="430.42"/>
  <line class="cls-2" x1="133.71" y1="430.13" x2="134.14" y2="430.42"/>
  <line class="cls-2" x1="212.52" y1="430.13" x2="212.1" y2="430.42"/>
  <line class="cls-3" x1=".18" y1="366.13" x2="346.05" y2="366.13"/>
  <line class="cls-3" x1="346.05" y1="366.13" x2="346.05" y2="20.45"/>
  <line class="cls-3" x1="346.05" y1="20.45" x2=".18" y2="20.45"/>
  <line class="cls-3" x1=".18" y1="20.45" x2=".18" y2="366.13"/>
  <path class="cls-5" d="M215.22,254.31h.04M214.05,254.31h.04M212.88,254.31h.04M211.71,254.31h.04M210.54,254.31h.04M209.37,254.31h.04M208.2,254.31h.04M207.03,254.31h.04M205.86,254.31h.04M204.69,254.31h.04M203.52,254.31h.04M202.35,254.31h.04M201.18,254.31h.04M200.01,254.31h.04M198.84,254.31h.04M197.67,254.31h.04M196.5,254.31h.04M195.33,254.31h.04M194.16,254.31h.04M192.99,254.31h.04M191.82,254.31h.04M190.65,254.31h.04M189.48,254.31h.04M188.31,254.31h.04M187.14,254.31h.04M185.97,254.31h.04M184.8,254.31h.04M183.63,254.31h.04M182.46,254.31h.04M181.29,254.31h.04M180.12,254.31h.04M178.95,254.31h.04M177.78,254.31h.04M176.61,254.31h.04M175.44,254.31h.04M174.27,254.31h.04M173.1,254.31h.04M171.93,254.31h.04M170.76,254.31h.04M169.59,254.31h.04M168.42,254.31h.04M167.25,254.31h.04M166.08,254.31h.04M164.91,254.31h.04M163.74,254.31h.04M162.57,254.31h.04M161.4,254.31h.04M160.23,254.31h.04M159.06,254.31h.04M157.89,254.31h.04M156.72,254.31h.04M155.55,254.31h.04M154.38,254.31h.04M153.21,254.31h.04M152.04,254.31h.04M150.87,254.31h.04M149.7,254.31h.04M148.53,254.31h.04M147.35,254.31h.04M146.18,254.31h.04M145.01,254.31h.04M143.84,254.31h.04M142.67,254.31h.04M141.5,254.31h.04M140.33,254.31h.04M139.16,254.31h.04M137.99,254.31h.04M136.82,254.31h.04M135.65,254.31h.04M134.48,254.31h.04M133.31,254.31h.04M132.14,254.31h.04M130.97,254.31h.04"/>
  <path class="cls-5" d="M215.78,169.87v-.04M215.78,171.04v-.04M215.78,172.21v-.04M215.78,173.38v-.04M215.78,174.54v-.04M215.78,175.71v-.04M215.78,176.88v-.04M215.78,178.05v-.04M215.78,179.22v-.04M215.78,180.39v-.04M215.78,181.56v-.04M215.78,182.73v-.04M215.78,183.9v-.04M215.78,185.07v-.04M215.78,186.24v-.04M215.78,187.41v-.04M215.78,188.58v-.04M215.78,189.75v-.04M215.78,190.92v-.04M215.78,192.09v-.04M215.78,193.26v-.04M215.78,194.43v-.04M215.78,195.6v-.04M215.78,196.77v-.04M215.78,197.93v-.04M215.78,199.1v-.04M215.78,200.27v-.04M215.78,201.44v-.04M215.78,202.61v-.04M215.78,203.78v-.04M215.78,204.95v-.04M215.78,206.12v-.04M215.78,207.29v-.04M215.78,208.46v-.04M215.78,209.63v-.04M215.78,210.8v-.04M215.78,211.97v-.04M215.78,213.14v-.04M215.78,214.31v-.04M215.78,215.48v-.04M215.78,216.65v-.04M215.78,217.82v-.04M215.78,218.99v-.04M215.78,220.16v-.04M215.78,221.32v-.04M215.78,222.49v-.04M215.78,223.66v-.04M215.78,224.83v-.04M215.78,226v-.04M215.78,227.17v-.04M215.78,228.34v-.04M215.78,229.51v-.04M215.78,230.68v-.04M215.78,231.85v-.04M215.78,233.02v-.04M215.78,234.19v-.04M215.78,235.36v-.04M215.78,236.53v-.04M215.78,237.7v-.04M215.78,238.87v-.04M215.78,240.04v-.04M215.78,241.21v-.04M215.78,242.38v-.04M215.78,243.55v-.04M215.78,244.71v-.04M215.78,245.88v-.04M215.78,247.05v-.04M215.78,248.22v-.04M215.78,249.39v-.04M215.78,250.56v-.04M215.78,251.73v-.04M215.78,252.9v-.04M215.78,254.07v-.04"/>
  <path class="cls-5" d="M131.01,169.59h-.04M132.18,169.59h-.04M133.35,169.59h-.04M134.52,169.59h-.04M135.69,169.59h-.04M136.86,169.59h-.04M138.03,169.59h-.04M139.2,169.59h-.04M140.37,169.59h-.04M141.54,169.59h-.04M142.71,169.59h-.04M143.88,169.59h-.04M145.05,169.59h-.04M146.22,169.59h-.04M147.39,169.59h-.04M148.56,169.59h-.04M149.73,169.59h-.04M150.9,169.59h-.04M152.07,169.59h-.04M153.24,169.59h-.04M154.41,169.59h-.04M155.58,169.59h-.04M156.75,169.59h-.04M157.92,169.59h-.04M159.09,169.59h-.04M160.26,169.59h-.04M161.43,169.59h-.04M162.6,169.59h-.04M163.77,169.59h-.04M164.94,169.59h-.04M166.11,169.59h-.04M167.28,169.59h-.04M168.45,169.59h-.04M169.62,169.59h-.04M170.79,169.59h-.04M171.96,169.59h-.04M173.13,169.59h-.04M174.3,169.59h-.04M175.47,169.59h-.04M176.64,169.59h-.04M177.82,169.59h-.04M178.99,169.59h-.04M180.16,169.59h-.04M181.33,169.59h-.04M182.5,169.59h-.04M183.67,169.59h-.04M184.84,169.59h-.04M186.01,169.59h-.04M187.18,169.59h-.04M188.35,169.59h-.04M189.52,169.59h-.04M190.69,169.59h-.04M191.86,169.59h-.04M193.03,169.59h-.04M194.2,169.59h-.04M195.37,169.59h-.04M196.54,169.59h-.04M197.71,169.59h-.04M198.88,169.59h-.04M200.05,169.59h-.04M201.22,169.59h-.04M202.39,169.59h-.04M203.56,169.59h-.04M204.73,169.59h-.04M205.9,169.59h-.04M207.07,169.59h-.04M208.24,169.59h-.04M209.41,169.59h-.04M210.58,169.59h-.04M211.75,169.59h-.04M212.92,169.59h-.04M214.09,169.59h-.04M215.26,169.59h-.04"/>
  <path class="cls-5" d="M130.45,254.03v.04M130.45,252.86v.04M130.45,251.69v.04M130.45,250.53v.04M130.45,249.36v.04M130.45,248.19v.04M130.45,247.02v.04M130.45,245.85v.04M130.45,244.68v.04M130.45,243.51v.04M130.45,242.34v.04M130.45,241.17v.04M130.45,240v.04M130.45,238.83v.04M130.45,237.66v.04M130.45,236.49v.04M130.45,235.32v.04M130.45,234.15v.04M130.45,232.98v.04M130.45,231.81v.04M130.45,230.64v.04M130.45,229.47v.04M130.45,228.3v.04M130.45,227.14v.04M130.45,225.97v.04M130.45,224.8v.04M130.45,223.63v.04M130.45,222.46v.04M130.45,221.29v.04M130.45,220.12v.04M130.45,218.95v.04M130.45,217.78v.04M130.45,216.61v.04M130.45,215.44v.04M130.45,214.27v.04M130.45,213.1v.04M130.45,211.93v.04M130.45,210.76v.04M130.45,209.59v.04M130.45,208.42v.04M130.45,207.25v.04M130.45,206.08v.04M130.45,204.91v.04M130.45,203.75v.04M130.45,202.58v.04M130.45,201.41v.04M130.45,200.24v.04M130.45,199.07v.04M130.45,197.9v.04M130.45,196.73v.04M130.45,195.56v.04M130.45,194.39v.04M130.45,193.22v.04M130.45,192.05v.04M130.45,190.88v.04M130.45,189.71v.04M130.45,188.54v.04M130.45,187.37v.04M130.45,186.2v.04M130.45,185.03v.04M130.45,183.86v.04M130.45,182.69v.04M130.45,181.52v.04M130.45,180.36v.04M130.45,179.19v.04M130.45,178.02v.04M130.45,176.85v.04M130.45,175.68v.04M130.45,174.51v.04M130.45,173.34v.04M130.45,172.17v.04M130.45,171v.04M130.45,169.83v.04"/>
  <line class="cls-3" x1="155.68" y1="243.23" x2="190.55" y2="243.23"/>
  <line class="cls-3" x1="190.55" y1="243.23" x2="190.55" y2="208.66"/>
  <line class="cls-3" x1="190.55" y1="208.66" x2="155.68" y2="208.66"/>
  <line class="cls-3" x1="155.68" y1="208.66" x2="155.68" y2="243.23"/>
  <polyline class="cls-4" points="190.55 243.23 206.15 249.45 215.78 254.31 261.99 289.2 307.23 326.81 331.19 350.43 343.76 363.84"/>
  <polyline class="cls-4" points="155.68 243.23 140.08 249.45 130.45 254.31 84.25 289.2 39 326.81 15.05 350.43 2.47 363.84"/>
  <line class="cls-3" x1="113.58" y1="435.94" x2="232.65" y2="435.94"/>
  <line class="cls-3" x1="232.65" y1="435.94" x2="232.65" y2="366.13"/>
  <line class="cls-3" x1="113.58" y1="366.13" x2="113.58" y2="435.94"/>
  <polygon class="cls-3" points="162.65 225.12 162.65 225.36 162.66 225.6 162.68 225.84 162.7 226.08 162.73 226.32 162.76 226.56 162.8 226.8 162.85 227.04 162.9 227.27 162.96 227.51 163.03 227.74 163.1 227.98 163.18 228.21 163.26 228.43 163.35 228.66 163.45 228.88 163.55 229.11 163.65 229.33 163.77 229.54 163.89 229.76 164.01 229.97 164.14 230.18 164.27 230.38 164.41 230.59 164.56 230.79 164.71 230.98 164.86 231.17 165.03 231.36 165.19 231.55 165.36 231.73 165.54 231.9 165.71 232.08 165.9 232.25 166.09 232.41 166.28 232.57 166.48 232.73 166.68 232.88 166.88 233.02 167.09 233.16 167.3 233.3 167.52 233.43 167.73 233.56 167.96 233.68 168.18 233.8 168.41 233.91 168.64 234.02 168.87 234.12 169.11 234.21 169.35 234.3 169.59 234.38 169.83 234.46 170.08 234.54 170.32 234.6 170.57 234.67 170.82 234.72 171.07 234.77 171.32 234.82 171.58 234.85 171.83 234.89 172.09 234.91 172.34 234.93 172.6 234.95 172.86 234.96 173.11 234.96 173.37 234.96 173.63 234.95 173.88 234.93 174.14 234.91 174.39 234.89 174.65 234.85 174.9 234.82 175.15 234.77 175.41 234.72 175.66 234.67 175.9 234.6 176.15 234.54 176.4 234.46 176.64 234.38 176.88 234.3 177.12 234.21 177.35 234.12 177.59 234.02 177.82 233.91 178.05 233.8 178.27 233.68 178.49 233.56 178.71 233.43 178.93 233.3 179.14 233.16 179.35 233.02 179.55 232.88 179.75 232.73 179.95 232.57 180.14 232.41 180.33 232.25 180.51 232.08 180.69 231.9 180.87 231.73 181.04 231.55 181.2 231.36 181.36 231.17 181.52 230.98 181.67 230.79 181.81 230.59 181.95 230.38 182.09 230.18 182.22 229.97 182.34 229.76 182.46 229.54 182.57 229.33 182.68 229.11 182.78 228.88 182.88 228.66 182.96 228.43 183.05 228.21 183.13 227.98 183.2 227.74 183.26 227.51 183.32 227.27 183.38 227.04 183.42 226.8 183.46 226.56 183.5 226.32 183.53 226.08 183.55 225.84 183.56 225.6 183.57 225.36 183.58 225.12 183.57 224.88 183.56 224.64 183.55 224.39 183.53 224.15 183.5 223.91 183.46 223.67 183.42 223.44 183.38 223.2 183.32 222.96 183.26 222.73 183.2 222.49 183.13 222.26 183.05 222.03 182.96 221.8 182.88 221.58 182.78 221.35 182.68 221.13 182.57 220.91 182.46 220.69 182.34 220.48 182.22 220.27 182.09 220.06 181.95 219.85 181.81 219.65 181.67 219.45 181.52 219.26 181.36 219.06 181.2 218.88 181.04 218.69 180.87 218.51 180.69 218.33 180.51 218.16 180.33 217.99 180.14 217.83 179.95 217.67 179.75 217.51 179.55 217.36 179.35 217.21 179.14 217.07 178.93 216.94 178.71 216.8 178.49 216.68 178.27 216.56 178.05 216.44 177.82 216.33 177.59 216.22 177.35 216.12 177.12 216.03 176.88 215.94 176.64 215.85 176.4 215.77 176.15 215.7 175.9 215.63 175.66 215.57 175.41 215.52 175.15 215.47 174.9 215.42 174.65 215.38 174.39 215.35 174.14 215.32 173.88 215.3 173.63 215.29 173.37 215.28 173.11 215.28 172.86 215.28 172.6 215.29 172.34 215.3 172.09 215.32 171.83 215.35 171.58 215.38 171.32 215.42 171.07 215.47 170.82 215.52 170.57 215.57 170.32 215.63 170.08 215.7 169.83 215.77 169.59 215.85 169.35 215.94 169.11 216.03 168.87 216.12 168.64 216.22 168.41 216.33 168.18 216.44 167.96 216.56 167.73 216.68 167.52 216.8 167.3 216.94 167.09 217.07 166.88 217.21 166.68 217.36 166.48 217.51 166.28 217.67 166.09 217.83 165.9 217.99 165.71 218.16 165.54 218.33 165.36 218.51 165.19 218.69 165.03 218.88 164.86 219.06 164.71 219.26 164.56 219.45 164.41 219.65 164.27 219.85 164.14 220.06 164.01 220.27 163.89 220.48 163.77 220.69 163.65 220.91 163.55 221.13 163.45 221.35 163.35 221.58 163.26 221.8 163.18 222.03 163.1 222.26 163.03 222.49 162.96 222.73 162.9 222.96 162.85 223.2 162.8 223.44 162.76 223.67 162.73 223.91 162.7 224.15 162.68 224.39 162.66 224.64 162.65 224.88 162.65 225.12"/>
  <polygon class="cls-3" points="175.81 225.08 175.81 225.02 175.81 224.96 175.8 224.9 175.8 224.84 175.79 224.77 175.78 224.71 175.77 224.65 175.75 224.59 175.74 224.53 175.72 224.48 175.71 224.42 175.69 224.36 175.67 224.3 175.64 224.24 175.62 224.19 175.59 224.13 175.57 224.07 175.54 224.02 175.51 223.96 175.48 223.91 175.44 223.86 175.41 223.8 175.38 223.75 175.34 223.7 175.3 223.65 175.26 223.6 175.22 223.56 175.18 223.51 175.13 223.46 175.09 223.42 175.04 223.37 175 223.33 174.95 223.29 174.9 223.25 174.85 223.21 174.8 223.17 174.75 223.13 174.69 223.1 174.64 223.06 174.58 223.03 174.53 222.99 174.47 222.96 174.41 222.93 174.35 222.9 174.29 222.88 174.23 222.85 174.17 222.83 174.11 222.8 174.05 222.78 173.99 222.76 173.93 222.74 173.86 222.73 173.8 222.71 173.73 222.69 173.67 222.68 173.6 222.67 173.54 222.66 173.47 222.65 173.41 222.64 173.34 222.64 173.28 222.63 173.21 222.63 173.14 222.63 173.08 222.63 173.01 222.63 172.94 222.63 172.88 222.64 172.81 222.65 172.75 222.65 172.68 222.66 172.62 222.67 172.55 222.69 172.49 222.7 172.42 222.71 172.36 222.73 172.29 222.75 172.23 222.77 172.17 222.79 172.11 222.81 172.05 222.83 171.99 222.86 171.93 222.89 171.87 222.91 171.81 222.94 171.75 222.97 171.69 223 171.64 223.04 171.58 223.07 171.53 223.11 171.48 223.14 171.42 223.18 171.37 223.22 171.32 223.26 171.27 223.3 171.22 223.34 171.18 223.39 171.13 223.43 171.09 223.48 171.04 223.52 171 223.57 170.96 223.62 170.92 223.67 170.88 223.72 170.85 223.77 170.81 223.82 170.78 223.87 170.75 223.93 170.71 223.98 170.68 224.04 170.66 224.09 170.63 224.15 170.6 224.2 170.58 224.26 170.56 224.32 170.54 224.38 170.52 224.43 170.5 224.49 170.48 224.55 170.47 224.61 170.46 224.67 170.45 224.73 170.44 224.79 170.43 224.85 170.42 224.91 170.42 224.98 170.41 225.04 170.41 225.1 170.41 225.16 170.41 225.22 170.42 225.28 170.42 225.34 170.43 225.4 170.44 225.46 170.45 225.52 170.46 225.58 170.47 225.64 170.49 225.7 170.5 225.76 170.52 225.82 170.54 225.88 170.56 225.94 170.58 225.99 170.61 226.05 170.63 226.11 170.66 226.16 170.69 226.22 170.72 226.27 170.75 226.33 170.78 226.38 170.82 226.43 170.85 226.48 170.89 226.53 170.93 226.58 170.97 226.63 171.01 226.68 171.05 226.73 171.09 226.77 171.14 226.82 171.18 226.86 171.23 226.91 171.28 226.95 171.33 226.99 171.38 227.03 171.43 227.07 171.48 227.11 171.53 227.14 171.59 227.18 171.64 227.21 171.7 227.24 171.76 227.27 171.81 227.3 171.87 227.33 171.93 227.36 171.99 227.39 172.05 227.41 172.11 227.43 172.18 227.46 172.24 227.48 172.3 227.49 172.36 227.51 172.43 227.53 172.49 227.54 172.56 227.56 172.62 227.57 172.69 227.58 172.75 227.59 172.82 227.59 172.89 227.6 172.95 227.6 173.02 227.61 173.08 227.61 173.15 227.61 173.22 227.61 173.28 227.6 173.35 227.6 173.41 227.59 173.48 227.58 173.55 227.57 173.61 227.56 173.68 227.55 173.74 227.54 173.81 227.52 173.87 227.51 173.93 227.49 174 227.47 174.06 227.45 174.12 227.43 174.18 227.4 174.24 227.38 174.3 227.35 174.36 227.32 174.42 227.3 174.48 227.26 174.53 227.23 174.59 227.2 174.64 227.17 174.7 227.13 174.75 227.09 174.8 227.06 174.85 227.02 174.91 226.98 174.95 226.94 175 226.89 175.05 226.85 175.09 226.81 175.14 226.76 175.18 226.71 175.22 226.67 175.26 226.62 175.3 226.57 175.34 226.52 175.38 226.47 175.41 226.42 175.45 226.36 175.48 226.31 175.51 226.26 175.54 226.2 175.57 226.15 175.6 226.09 175.62 226.03 175.65 225.98 175.67 225.92 175.69 225.86 175.71 225.8 175.73 225.74 175.74 225.68 175.76 225.63 175.77 225.57 175.78 225.51 175.79 225.44 175.8 225.38 175.8 225.32 175.81 225.26 175.81 225.2 175.81 225.14 175.81 225.08"/>
  <polyline class="cls-3" points="155.68 241.88 155.76 241.97 155.84 242.06 155.92 242.15 156 242.24 156.09 242.33 156.17 242.41 156.25 242.5 156.34 242.58 156.42 242.67 156.5 242.76 156.59 242.84 156.67 242.93 156.76 243.01 156.85 243.09 156.93 243.18 156.99 243.23"/>
  <polyline class="cls-3" points="189.24 243.23 189.33 243.15 189.42 243.06 189.5 242.98 189.59 242.9 189.67 242.81 189.76 242.73 189.84 242.64 189.93 242.56 190.01 242.47 190.09 242.38 190.17 242.29 190.26 242.21 190.34 242.12 190.42 242.03 190.5 241.94 190.55 241.88"/>
  <polyline class="cls-3" points="190.55 210.69 190.47 210.6 190.39 210.52 190.31 210.43 190.23 210.34 190.15 210.25 190.06 210.16 189.98 210.08 189.9 209.99 189.81 209.91 189.73 209.82 189.64 209.74 189.56 209.65 189.47 209.57 189.39 209.48 189.3 209.4 189.21 209.32 189.13 209.23 189.04 209.15 188.95 209.07 188.86 208.99 188.77 208.91 188.68 208.83 188.59 208.75 188.5 208.67 188.49 208.66"/>
  <polyline class="cls-3" points="157.74 208.66 157.65 208.74 157.56 208.82 157.47 208.9 157.38 208.98 157.29 209.06 157.2 209.14 157.12 209.23 157.03 209.31 156.94 209.39 156.86 209.47 156.77 209.56 156.68 209.64 156.6 209.73 156.51 209.81 156.43 209.9 156.35 209.98 156.26 210.07 156.18 210.15 156.1 210.24 156.01 210.33 155.93 210.42 155.85 210.51 155.77 210.59 155.69 210.68 155.68 210.69"/>
  <path class="cls-3" d="M161.52,225.12c0,.37.02.74.06,1.1.04.37.1.73.18,1.09.08.36.17.72.29,1.07.12.35.25.7.4,1.03.15.34.32.67.51.99.19.32.39.63.61.94.22.3.46.59.71.87.25.28.52.55.79.8.28.25.57.5.87.72.3.23.62.44.94.63.33.2.66.38,1,.54.34.16.7.31,1.05.44.36.13.73.25,1.1.34.37.1.75.18,1.13.24.38.06.76.11,1.14.13.38.03.77.03,1.15.02.38-.01.77-.04,1.15-.09.38-.05.76-.11,1.13-.19.37-.08.74-.18,1.11-.3.36-.12.72-.25,1.07-.4.35-.15.69-.32,1.03-.5.33-.18.66-.38.97-.6.31-.21.61-.44.9-.69.29-.24.56-.5.83-.77.26-.27.51-.55.74-.84.23-.29.45-.6.65-.91.2-.31.38-.64.55-.97.17-.33.32-.67.45-1.02.13-.35.24-.7.34-1.06.09-.36.17-.72.22-1.08.06-.36.09-.73.11-1.1.02-.37.01-.74,0-1.1-.02-.37-.07-.73-.13-1.1-.06-.36-.14-.72-.24-1.08-.1-.36-.22-.71-.36-1.05-.14-.34-.29-.68-.46-1.01-.17-.33-.36-.65-.57-.96-.21-.31-.43-.61-.67-.9-.24-.29-.49-.57-.76-.83-.27-.27-.55-.52-.84-.75-.29-.24-.6-.46-.91-.67-.32-.21-.64-.4-.98-.58-.34-.18-.68-.34-1.03-.49-.35-.15-.71-.27-1.08-.39-.37-.11-.74-.21-1.11-.28-.38-.08-.76-.13-1.14-.18-.38-.04-.77-.06-1.15-.07-.38,0-.77,0-1.15.04-.38.03-.76.08-1.14.15-.38.07-.75.15-1.12.26-.37.1-.73.22-1.09.36-.36.14-.71.29-1.05.46-.34.17-.67.36-.99.56-.32.2-.63.42-.93.65-.3.23-.59.48-.86.73-.27.26-.53.53-.78.81-.24.28-.48.58-.69.88-.21.3-.41.62-.59.95-.18.32-.34.66-.49,1-.15.34-.27.69-.38,1.04-.11.35-.2.71-.27,1.07-.07.36-.12.73-.16,1.09-.03.31-.04.61-.04.92Z"/>
  <polyline class="cls-4" points="155.68 208.66 148.6 196.34 139.53 181.9 130.45 169.59 102.26 131.97 85.61 111.3 41.76 62 19.56 38.63 7.42 26.55 2.47 22.73"/>
  <polyline class="cls-4" points="190.55 208.66 197.64 196.34 206.7 181.9 215.78 169.59 243.97 131.97 260.62 111.3 304.47 62 326.67 38.63 338.81 26.55 343.76 22.73"/>
  <line class="cls-3" x1="118.69" y1="366.13" x2="118.69" y2="372.9"/>
  <line class="cls-3" x1="118.69" y1="379.98" x2="118.69" y2="430.84"/>
  <line class="cls-3" x1="227.55" y1="372.9" x2="227.55" y2="366.13"/>
  <line class="cls-3" x1="227.55" y1="430.84" x2="227.55" y2="379.98"/>
  <line class="cls-3" x1="176.66" y1="430.84" x2="227.55" y2="430.84"/>
  <line class="cls-3" x1="118.69" y1="430.84" x2="169.57" y2="430.84"/>
  <line class="cls-3" x1="2.47" y1="22.73" x2="2.47" y2="363.84"/>
  <line class="cls-3" x1="2.47" y1="363.84" x2="343.76" y2="363.84"/>
  <line class="cls-3" x1="343.76" y1="363.84" x2="343.76" y2="22.73"/>
  <line class="cls-3" x1="343.76" y1="22.73" x2="2.47" y2="22.73"/>
  <rect class="cls-3" x="162.42" y="23.56" width="21.4" height="3.82"/>
  <line class="cls-3" x1="133.85" y1="366.13" x2="133.85" y2="372.9"/>
  <line class="cls-3" x1="133.85" y1="379.98" x2="133.85" y2="430.23"/>
  <line class="cls-3" x1="212.38" y1="366.13" x2="212.38" y2="372.9"/>
  <line class="cls-3" x1="212.38" y1="379.98" x2="212.38" y2="430.23"/>
  <line class="cls-3" x1="201.89" y1="372.9" x2="207.14" y2="372.9"/>
  <line class="cls-3" x1="144.34" y1="372.9" x2="139.1" y2="372.9"/>
  <line class="cls-3" x1="201.89" y1="379.98" x2="207.14" y2="379.98"/>
  <line class="cls-3" x1="144.34" y1="379.98" x2="139.1" y2="379.98"/>
  <polyline class="cls-3" points="142.54 375.16 142.53 375.17 142.52 375.17 142.51 375.17 142.5 375.17 142.49 375.17 142.48 375.18 142.46 375.18 142.45 375.19 142.44 375.2 142.43 375.2 142.42 375.21 142.41 375.22 142.4 375.23 142.39 375.24 142.38 375.25 142.36 375.26 142.35 375.27 142.34 375.29 142.33 375.3 142.32 375.32 142.31 375.33 142.3 375.35 142.29 375.36 142.28 375.38 142.27 375.4 142.26 375.42 142.26 375.43 142.25 375.45 142.24 375.47 142.23 375.5 142.22 375.52 142.21 375.54 142.2 375.56 142.2 375.58 142.19 375.61 142.18 375.63 142.17 375.66 142.17 375.68 142.16 375.71 142.15 375.73 142.15 375.76 142.14 375.78 142.14 375.81 142.13 375.84 142.13 375.87 142.12 375.89 142.12 375.92 142.11 375.95 142.11 375.98 142.1 376.01 142.1 376.04 142.1 376.07 142.09 376.1 142.09 376.13 142.09 376.16 142.08 376.19 142.08 376.22 142.08 376.25 142.08 376.28 142.08 376.31 142.08 376.35 142.08 376.38 142.08 376.41 142.08 376.44 142.08 376.47 142.08 376.5 142.08 376.53 142.08 376.56 142.08 376.6 142.08 376.63 142.08 376.66 142.08 376.69 142.09 376.72 142.09 376.75 142.09 376.78 142.1 376.81 142.1 376.84 142.1 376.87 142.11 376.9 142.11 376.93 142.12 376.96 142.12 376.98 142.13 377.01 142.13 377.04 142.14 377.07 142.14 377.1 142.15 377.12 142.15 377.15 142.16 377.17 142.17 377.2 142.17 377.22 142.18 377.25 142.19 377.27 142.2 377.3 142.2 377.32 142.21 377.34 142.22 377.36 142.23 377.38 142.24 377.41 142.25 377.43 142.26 377.44 142.26 377.46 142.27 377.48 142.28 377.5 142.29 377.52 142.3 377.53 142.31 377.55 142.32 377.56 142.33 377.58 142.34 377.59 142.35 377.61 142.36 377.62 142.38 377.63 142.39 377.64 142.4 377.65 142.41 377.66 142.42 377.67 142.43 377.68 142.44 377.68 142.45 377.69 142.46 377.7 142.48 377.7 142.49 377.71 142.5 377.71 142.51 377.71 142.52 377.71 142.53 377.71 142.54 377.71"/>
  <polyline class="cls-3" points="203.69 375.16 203.7 375.17 203.71 375.17 203.72 375.17 203.73 375.17 203.75 375.17 203.76 375.18 203.77 375.18 203.78 375.19 203.79 375.2 203.8 375.2 203.81 375.21 203.82 375.22 203.84 375.23 203.85 375.24 203.86 375.25 203.87 375.26 203.88 375.27 203.89 375.29 203.9 375.3 203.91 375.32 203.92 375.33 203.93 375.35 203.94 375.36 203.95 375.38 203.96 375.4 203.97 375.42 203.98 375.43 203.99 375.45 203.99 375.47 204 375.5 204.01 375.52 204.02 375.54 204.03 375.56 204.04 375.58 204.04 375.61 204.05 375.63 204.06 375.66 204.06 375.68 204.07 375.71 204.08 375.73 204.08 375.76 204.09 375.78 204.1 375.81 204.1 375.84 204.11 375.87 204.11 375.89 204.12 375.92 204.12 375.95 204.13 375.98 204.13 376.01 204.13 376.04 204.14 376.07 204.14 376.1 204.14 376.13 204.15 376.16 204.15 376.19 204.15 376.22 204.15 376.25 204.15 376.28 204.15 376.31 204.16 376.35 204.16 376.38 204.16 376.41 204.16 376.44 204.16 376.47 204.16 376.5 204.16 376.53 204.15 376.56 204.15 376.6 204.15 376.63 204.15 376.66 204.15 376.69 204.15 376.72 204.14 376.75 204.14 376.78 204.14 376.81 204.13 376.84 204.13 376.87 204.13 376.9 204.12 376.93 204.12 376.96 204.11 376.98 204.11 377.01 204.1 377.04 204.1 377.07 204.09 377.1 204.08 377.12 204.08 377.15 204.07 377.17 204.06 377.2 204.06 377.22 204.05 377.25 204.04 377.27 204.04 377.3 204.03 377.32 204.02 377.34 204.01 377.36 204 377.38 203.99 377.41 203.99 377.43 203.98 377.44 203.97 377.46 203.96 377.48 203.95 377.5 203.94 377.52 203.93 377.53 203.92 377.55 203.91 377.56 203.9 377.58 203.89 377.59 203.88 377.61 203.87 377.62 203.86 377.63 203.85 377.64 203.84 377.65 203.82 377.66 203.81 377.67 203.8 377.68 203.79 377.68 203.78 377.69 203.77 377.7 203.76 377.7 203.75 377.71 203.73 377.71 203.72 377.71 203.71 377.71 203.7 377.71 203.69 377.71"/>
  <line class="cls-3" x1=".18" y1="2.45" x2="203.92" y2="2.45"/>
  <line class="cls-3" x1="184.83" y1="2.45" x2="346.05" y2="2.45"/>
  <polygon class="cls-7" points=".18 2.45 4.72 1.7 4.72 3.21 .18 2.45"/>
  <polygon class="cls-7" points=".18 2.45 4.72 1.7 4.72 3.21 .18 2.45"/>
  <polygon class="cls-3" points=".18 2.45 4.72 1.7 4.72 3.21 .18 2.45"/>
  <polygon class="cls-7" points="346.05 2.45 341.51 3.21 341.51 1.7 346.05 2.45"/>
  <polygon class="cls-7" points="346.05 2.45 341.51 3.21 341.51 1.7 346.05 2.45"/>
  <polygon class="cls-3" points="346.05 2.45 341.51 3.21 341.51 1.7 346.05 2.45"/>
  <line class="cls-3" x1=".18" y1="19.31" x2=".18" y2=".18"/>
  <line class="cls-3" x1="346.05" y1="19.31" x2="346.05" y2=".18"/>
  <polygon class="cls-7" points="299.93 226.29 300.69 230.82 299.18 230.82 299.93 226.29"/>
  <polygon class="cls-7" points="299.93 226.29 300.69 230.82 299.18 230.82 299.93 226.29"/>
  <polygon class="cls-3" points="299.93 226.29 300.69 230.82 299.18 230.82 299.93 226.29"/>
  <polygon class="cls-7" points="299.93 457.06 299.18 452.53 300.69 452.53 299.93 457.06"/>
  <polygon class="cls-7" points="299.93 457.06 299.18 452.53 300.69 452.53 299.93 457.06"/>
  <polygon class="cls-3" points="299.93 457.06 299.18 452.53 300.69 452.53 299.93 457.06"/>
  <line class="cls-3" x1="58.16" y1="481.06" x2="178.66" y2="481.06"/>
  <line class="cls-3" x1="171.56" y1="481.06" x2="273.62" y2="481.06"/>
  <polygon class="cls-7" points="58.16 481.06 62.69 480.3 62.69 481.81 58.16 481.06"/>
  <polygon class="cls-7" points="58.16 481.06 62.69 480.3 62.69 481.81 58.16 481.06"/>
  <polygon class="cls-3" points="58.16 481.06 62.69 480.3 62.69 481.81 58.16 481.06"/>
  <polygon class="cls-7" points="273.62 481.06 269.08 481.81 269.08 480.3 273.62 481.06"/>
  <polygon class="cls-7" points="273.62 481.06 269.08 481.81 269.08 480.3 273.62 481.06"/>
  <polygon class="cls-3" points="273.62 481.06 269.08 481.81 269.08 480.3 273.62 481.06"/>
  <line class="cls-3" x1="58.16" y1="456.17" x2="58.16" y2="483.32"/>
  <line class="cls-3" x1="273.62" y1="452.61" x2="273.62" y2="483.32"/>
  <g>
    <path class="cls-6" d="M161.39,475.33c.09-.54.26-1.08.49-1.62s.57-1.08.99-1.6h-2.71v-.61h3.56v.59c-.57.62-1,1.36-1.3,2.2s-.45,1.78-.45,2.81h-.74c.02-.64.07-1.24.16-1.77Z"/>
    <path class="cls-6" d="M165.38,476.92c-.28-.18-.5-.42-.66-.74-.15-.32-.23-.69-.23-1.11,0-.59.14-1.14.42-1.67.28-.53.67-.97,1.16-1.32.49-.36,1.03-.58,1.62-.66l.07.57c-.52.12-.98.35-1.4.69s-.71.75-.87,1.22c.08-.11.21-.2.38-.27.17-.07.36-.11.57-.11.36,0,.68.08.94.24s.46.38.6.66c.14.28.2.59.2.94s-.07.67-.22.94-.35.5-.62.65-.59.24-.96.24-.72-.09-1-.26ZM167.17,476.24c.2-.22.3-.52.3-.9s-.1-.67-.3-.89-.46-.33-.8-.33-.6.11-.8.33-.3.52-.3.89.1.67.3.9c.2.22.46.34.8.34s.6-.11.8-.33Z"/>
    <path class="cls-6" d="M169.33,476.45c-.33-.49-.49-1.2-.49-2.15s.16-1.66.49-2.15.79-.73,1.41-.73,1.08.24,1.41.73.49,1.2.49,2.15-.16,1.66-.49,2.15c-.33.49-.79.73-1.41.73s-1.08-.24-1.41-.73ZM171.6,476.04c.2-.39.3-.97.3-1.74s-.1-1.35-.3-1.74c-.2-.39-.49-.58-.86-.58s-.67.19-.86.58c-.2.39-.3.97-.3,1.74s.1,1.35.3,1.74.49.58.86.58.67-.19.86-.58Z"/>
    <path class="cls-6" d="M173.42,474.11c0-.4-.01-.74-.04-1.01h.61c.02.21.03.45.03.71h.02c.11-.25.27-.44.5-.58.23-.14.49-.21.77-.21s.53.07.73.22c.2.14.34.34.41.6.11-.25.28-.45.51-.6s.49-.22.78-.22c.44,0,.78.14,1.03.42s.37.68.37,1.18v2.47h-.67v-2.42c0-.36-.08-.64-.23-.83-.15-.19-.37-.29-.66-.29s-.51.11-.7.32c-.18.21-.27.48-.27.81v2.41h-.67v-2.38c0-.39-.07-.68-.21-.87s-.35-.28-.63-.28c-.18,0-.34.05-.5.16-.15.11-.28.25-.37.42-.09.18-.14.37-.14.57v2.38h-.67v-2.99Z"/>
    <path class="cls-6" d="M180.14,474.11c0-.4-.01-.74-.04-1.01h.61c.02.21.03.45.03.71h.02c.11-.25.27-.44.5-.58.23-.14.49-.21.77-.21s.53.07.73.22c.2.14.34.34.41.6.11-.25.28-.45.51-.6s.49-.22.78-.22c.44,0,.78.14,1.03.42s.37.68.37,1.18v2.47h-.67v-2.42c0-.36-.08-.64-.23-.83-.15-.19-.37-.29-.66-.29s-.51.11-.7.32c-.18.21-.27.48-.27.81v2.41h-.67v-2.38c0-.39-.07-.68-.21-.87s-.35-.28-.63-.28c-.18,0-.34.05-.5.16-.15.11-.28.25-.37.42-.09.18-.14.37-.14.57v2.38h-.67v-2.99Z"/>
  </g>
  <g>
    <path class="cls-6" d="M166.81,12.19h.96v-4.15l-1.1.65v-.67l1.37-.84h.47v5.02h.95v.58h-2.65v-.58Z"/>
    <path class="cls-6" d="M170.69,12.14c.38-.28.77-.61,1.15-1,.38-.39.71-.8.97-1.24.27-.44.4-.85.4-1.24,0-.3-.09-.53-.26-.71-.17-.17-.4-.26-.7-.26-.27,0-.52.06-.76.19-.24.13-.43.3-.56.51l-.39-.44c.17-.27.4-.49.71-.64.31-.15.64-.23,1.01-.23.52,0,.94.14,1.24.42.3.28.46.66.46,1.13,0,.57-.22,1.15-.67,1.77-.45.61-.99,1.21-1.64,1.78h2.55v.58h-3.52v-.63Z"/>
    <path class="cls-6" d="M175.09,12.14c.38-.28.77-.61,1.15-1s.71-.8.97-1.24c.27-.44.4-.85.4-1.24,0-.3-.08-.53-.26-.71s-.4-.26-.7-.26c-.27,0-.52.06-.76.19s-.43.3-.56.51l-.39-.44c.17-.27.4-.49.71-.64.31-.15.64-.23,1.01-.23.52,0,.94.14,1.24.42.3.28.46.66.46,1.13,0,.57-.22,1.15-.67,1.77s-.99,1.21-1.64,1.78h2.55v.58h-3.52v-.63Z"/>
    <path class="cls-6" d="M179.77,12.12c-.33-.49-.49-1.2-.49-2.15s.16-1.66.49-2.15c.33-.49.79-.73,1.41-.73s1.08.24,1.41.73c.33.49.49,1.2.49,2.15s-.16,1.66-.49,2.15c-.33.49-.79.73-1.41.73s-1.08-.24-1.41-.73ZM182.04,11.71c.2-.39.3-.97.3-1.74s-.1-1.35-.3-1.74c-.2-.39-.49-.58-.86-.58s-.67.19-.86.58c-.2.39-.3.97-.3,1.74s.1,1.35.3,1.74.49.58.86.58.67-.19.86-.58Z"/>
    <path class="cls-6" d="M183.86,9.78c0-.41-.01-.74-.04-1.01h.61c.02.21.03.45.03.71h.02c.11-.25.27-.44.5-.58.23-.14.49-.21.77-.21s.53.07.73.22c.2.14.34.34.41.6.11-.25.28-.45.51-.6.23-.15.49-.22.78-.22.44,0,.78.14,1.03.42s.37.68.37,1.18v2.47h-.67v-2.42c0-.36-.08-.64-.23-.83-.15-.19-.37-.29-.66-.29s-.51.11-.7.32c-.18.21-.27.48-.27.81v2.41h-.67v-2.38c0-.39-.07-.68-.21-.87s-.35-.28-.63-.28c-.18,0-.34.05-.5.16-.15.11-.28.25-.37.42-.09.18-.14.37-.14.57v2.38h-.67v-2.99Z"/>
    <path class="cls-6" d="M190.58,9.78c0-.41-.01-.74-.04-1.01h.61c.02.21.03.45.03.71h.02c.11-.25.27-.44.5-.58.23-.14.49-.21.77-.21s.53.07.73.22c.2.14.34.34.41.6.11-.25.28-.45.51-.6.23-.15.49-.22.78-.22.44,0,.78.14,1.03.42s.37.68.37,1.18v2.47h-.67v-2.42c0-.36-.08-.64-.23-.83-.15-.19-.37-.29-.66-.29s-.51.11-.7.32c-.18.21-.27.48-.27.81v2.41h-.67v-2.38c0-.39-.07-.68-.21-.87s-.35-.28-.63-.28c-.18,0-.34.05-.5.16-.15.11-.28.25-.37.42-.09.18-.14.37-.14.57v2.38h-.67v-2.99Z"/>
  </g>
</svg>