<?xml version="1.0" encoding="UTF-8"?>
<svg id="Layer_1" data-name="Layer 1" xmlns="http://www.w3.org/2000/svg" viewBox="0 0 639.49 564.38">
  <defs>
    <style>
      .cls-1, .cls-2, .cls-3, .cls-4, .cls-5, .cls-6 {
        stroke-miterlimit: 10;
      }

      .cls-1, .cls-2, .cls-3, .cls-4, .cls-6 {
        stroke: #231f20;
      }

      .cls-1, .cls-3, .cls-5, .cls-6 {
        fill: none;
      }

      .cls-7 {
        fill: #231f20;
      }

      .cls-2, .cls-3, .cls-6 {
        stroke-linecap: round;
      }

      .cls-2, .cls-4 {
        fill: #fff;
      }

      .cls-3 {
        stroke-width: 2px;
      }

      .cls-5 {
        stroke: #1d1d1f;
      }

      .cls-5, .cls-6 {
        stroke-width: 3px;
      }
    </style>
  </defs>
  <polygon class="cls-5" points="46.76 44.8 255.81 44.8 256.06 562.88 244.87 562.88 57.78 562.88 46.76 562.88 46.76 44.8"/>
  <rect x="114.94" y="88.86" width="65.47" height="1.08" rx=".15" ry=".15"/>
  <g>
    <path d="M114.97,88.82s-.03-.05-.03-.08v-6.74s.01-.06.03-.08.05-.03.08-.03h1.13c.07,0,.11.04.12.12v5.6s0,.05.05.05h2.02c.07,0,.11.04.12.12v.97s-.01.06-.04.08c-.02.02-.05.03-.08.03h-3.33s-.06-.01-.08-.03Z"/>
    <path d="M125,88.5c-.35-.3-.55-.7-.61-1.21,0-.07-.01-.17-.02-.32v-3.19c0-.6.17-1.08.53-1.44.35-.36.83-.54,1.42-.54.54,0,.98.15,1.33.44s.55.7.62,1.21c0,.07.01.17.02.32v3.19c0,.6-.18,1.08-.53,1.44s-.83.46-1.42.46c-.54,0-.98-.07-1.33-.36ZM126.76,87.54c.11-.13.16-.3.16-.51v-3.31s0-.07,0-.12c-.02-.18-.09-.32-.19-.43-.11-.11-.24-.16-.4-.16-.18,0-.32.06-.43.19s-.16.3-.16.51v3.31s0,.07,0,.12c.02.18.09.32.19.43.11.11.24.16.39.16.19,0,.33-.06.44-.19Z"/>
    <path d="M135.59,88.75l-1.31-6.74v-.02c-.01-.07.02-.11.1-.11h1.18c.07,0,.11.04.12.11l.55,3.59s.02.04.03.04.02-.01.03-.04l.53-3.59c.01-.07.05-.11.13-.11h.98c.07,0,.11.04.12.11l.57,3.59s.01.04.03.04.03-.01.03-.04l.49-3.59c.01-.07.05-.11.13-.11h1.15c.08,0,.11.04.11.13l-1.23,6.74c-.01.07-.05.11-.13.11h-1.05c-.07,0-.11-.04-.12-.11l-.57-3.69s-.01-.04-.02-.04-.02.01-.04.04l-.51,3.69c-.01.07-.05.11-.13.11h-1.03c-.08,0-.12-.04-.13-.11Z"/>
    <path d="M150.49,81.92s.03.05.03.08v.97s-.01.06-.04.08-.05.03-.08.03h-1.22s-.02,0-.03.01-.01.02-.01.03v5.6s-.01.06-.03.08c-.02.02-.05.03-.08.03h-1.14s-.06-.01-.08-.03c-.02-.02-.03-.05-.03-.08v-5.6s0-.05-.05-.05h-1.16c-.07,0-.11-.04-.12-.12v-.97s.01-.06.04-.08c.02-.02.05-.03.08-.03h3.84s.06.01.08.03Z"/>
    <path d="M159.12,81.92s.05-.03.08-.03h1.14s.06.01.08.03c.02.02.03.05.03.08v6.74s-.01.06-.03.08c-.02.02-.05.03-.08.03h-1.14s-.06-.01-.08-.03c-.02-.02-.03-.05-.03-.08v-2.72s-.01-.05-.04-.05h-.97s-.06.02-.05.05v2.72s-.01.06-.03.08c-.02.02-.05.03-.09.03h-1.13s-.06-.01-.08-.03c-.02-.02-.03-.05-.03-.08v-6.74s.01-.06.03-.08.05-.03.08-.03h1.13c.07,0,.11.04.12.12v2.71s.01.05.04.05h.97s.04-.02.05-.05v-2.71s.01-.06.03-.08Z"/>
    <path d="M170.27,83.05s-.05.03-.08.03h-2.02s-.05.02-.04.05v1.57s.01.05.04.05h1.17s.06.01.08.03.03.05.03.08v.97s-.01.06-.04.08-.05.03-.08.03h-1.16s-.06.02-.05.05v1.58s.01.05.05.05h2.01s.06.01.09.03.04.05.04.08v.97s-.01.06-.04.08c-.02.02-.05.03-.08.03h-3.32s-.06-.01-.08-.03c-.02-.02-.03-.05-.03-.08v-6.74s.01-.06.03-.08.05-.03.08-.03h3.32s.06.01.08.03.03.05.03.08v.97s-.01.06-.04.08Z"/>
    <path d="M179.01,88.76l-.75-2.75s-.03-.04-.05-.04h-.32s-.06.02-.05.05v2.72s-.01.06-.03.08c-.02.02-.05.03-.09.03h-1.13s-.06-.01-.08-.03c-.02-.02-.03-.05-.03-.08v-6.74s.01-.06.03-.08.05-.03.08-.03h1.95c.48,0,.88.16,1.2.47.32.32.52.74.58,1.26.02.16.03.28.03.37,0,.39-.07.73-.22,1.03-.15.3-.35.54-.61.7-.01,0-.02.01-.03.02,0,0,0,.02,0,.03l.89,2.94v.02s0,.06-.02.08c-.02.02-.05.03-.08.03h-1.16c-.07,0-.11-.03-.13-.1ZM177.85,83.14v1.7s0,.05.05.05h.43c.23,0,.4-.1.53-.3.13-.2.17-.46.13-.79-.03-.22-.1-.39-.22-.52-.12-.13-.26-.19-.44-.19h-.44s-.05.02-.04.05Z"/>
  </g>
  <line class="cls-4" x1="361.73" y1="15.74" x2="637.99" y2="15.74"/>
  <line class="cls-2" x1="637.99" y1="21.85" x2="637.99" y2="9.12"/>
  <line class="cls-2" x1="361.73" y1="22.11" x2="361.73" y2="9.38"/>
  <g>
    <path class="cls-7" d="M492.63,8.76h-3.85v-.94l3.61-6.02h1.34v6.05h.95v.91h-.95v1.44h-1.1v-1.44ZM492.63,7.85V3.08l-2.84,4.76h2.84Z"/>
    <path class="cls-7" d="M496.26,9.68c-.5-.43-.75-1.02-.75-1.77,0-.5.12-.94.36-1.32.24-.38.58-.67,1.03-.86-.34-.14-.6-.39-.8-.74-.2-.35-.3-.73-.3-1.15,0-.66.23-1.18.69-1.57.46-.39,1.07-.59,1.84-.59s1.38.2,1.84.59c.46.39.69.92.69,1.57,0,.42-.1.8-.3,1.15-.2.35-.47.59-.8.74.45.19.79.48,1.03.86.24.38.36.82.36,1.32,0,.75-.25,1.34-.75,1.77-.5.43-1.19.64-2.07.64s-1.57-.21-2.07-.64ZM499.59,8.97c.3-.29.46-.69.46-1.21s-.15-.91-.46-1.19-.72-.43-1.26-.43-.96.14-1.26.43c-.3.28-.46.68-.46,1.19s.15.91.46,1.21c.3.29.72.44,1.26.44s.96-.15,1.26-.44ZM499.37,4.94c.26-.25.38-.58.38-1s-.13-.74-.38-.98-.6-.37-1.04-.37-.79.12-1.04.37-.38.58-.38.98.13.75.38,1,.6.37,1.04.37.79-.12,1.04-.37Z"/>
    <path class="cls-7" d="M502.82,9.22c-.49-.73-.73-1.81-.73-3.22s.24-2.49.73-3.22c.49-.73,1.19-1.1,2.11-1.1s1.62.37,2.11,1.1.73,1.81.73,3.22-.24,2.49-.73,3.22-1.19,1.1-2.11,1.1-1.62-.37-2.11-1.1ZM506.23,8.6c.3-.58.44-1.45.44-2.6s-.15-2.02-.44-2.6c-.3-.58-.73-.88-1.3-.88s-1,.29-1.3.88c-.3.58-.44,1.45-.44,2.6s.15,2.02.44,2.6c.3.58.73.88,1.3.88s1-.29,1.3-.88Z"/>
    <path class="cls-7" d="M508.96,5.71c0-.61-.02-1.11-.06-1.51h.91c.03.32.05.68.05,1.07h.04c.16-.37.41-.66.76-.87s.73-.32,1.15-.32.79.11,1.09.32c.3.22.51.52.61.9.17-.38.42-.67.77-.89.34-.22.73-.33,1.16-.33.66,0,1.17.21,1.54.64s.56,1.02.56,1.78v3.71h-1.01v-3.62c0-.54-.11-.96-.34-1.25-.23-.29-.56-.43-.99-.43s-.77.16-1.04.47c-.27.32-.41.72-.41,1.22v3.61h-1.01v-3.58c0-.58-.1-1.02-.31-1.3-.21-.28-.52-.43-.95-.43-.26,0-.51.08-.74.24-.23.16-.42.37-.56.64-.14.26-.21.55-.21.85v3.58h-1.01v-4.49Z"/>
    <path class="cls-7" d="M519.03,5.71c0-.61-.02-1.11-.06-1.51h.91c.03.32.05.68.05,1.07h.04c.16-.37.41-.66.76-.87s.73-.32,1.15-.32.79.11,1.09.32c.3.22.51.52.61.9.17-.38.42-.67.77-.89.34-.22.73-.33,1.16-.33.66,0,1.17.21,1.54.64s.56,1.02.56,1.78v3.71h-1.01v-3.62c0-.54-.11-.96-.34-1.25-.23-.29-.56-.43-.99-.43s-.77.16-1.04.47c-.27.32-.41.72-.41,1.22v3.61h-1.01v-3.58c0-.58-.1-1.02-.31-1.3-.21-.28-.52-.43-.95-.43-.26,0-.51.08-.74.24-.23.16-.42.37-.56.64-.14.26-.21.55-.21.85v3.58h-1.01v-4.49Z"/>
  </g>
  <line class="cls-4" x1="44.58" y1="15.74" x2="256.06" y2="15.74"/>
  <line class="cls-2" x1="256.06" y1="21.85" x2="256.06" y2="9.12"/>
  <line class="cls-2" x1="44.58" y1="22.11" x2="44.58" y2="9.38"/>
  <g>
    <path class="cls-7" d="M132.29,9.25c.58-.42,1.15-.91,1.72-1.49.57-.58,1.06-1.2,1.46-1.85.4-.66.6-1.28.6-1.86,0-.45-.13-.8-.38-1.06-.26-.26-.6-.39-1.04-.39-.4,0-.78.1-1.13.29-.36.19-.64.45-.85.77l-.59-.66c.25-.41.6-.73,1.06-.96s.97-.35,1.52-.35c.78,0,1.4.21,1.86.63s.68.99.68,1.7c0,.85-.33,1.73-1,2.65s-1.49,1.81-2.45,2.66h3.83v.88h-5.28v-.95Z"/>
    <path class="cls-7" d="M139.72,9.98c-.47-.22-.82-.52-1.06-.9l.53-.71c.23.33.53.58.88.76.36.18.74.27,1.16.27.56,0,1-.18,1.33-.53.32-.36.49-.84.49-1.45s-.15-1.05-.44-1.39c-.3-.34-.7-.51-1.2-.51-.31,0-.61.07-.88.22s-.49.35-.64.59h-.92l.4-4.55h4.55v.91h-3.55l-.22,2.45c.16-.15.38-.27.67-.36s.58-.13.88-.13c.76,0,1.37.25,1.82.74s.68,1.16.68,1.99c0,.58-.12,1.1-.36,1.54-.24.44-.58.78-1.02,1.02-.44.24-.95.36-1.54.36s-1.07-.11-1.54-.34Z"/>
    <path class="cls-7" d="M145.91,9.22c-.49-.73-.73-1.81-.73-3.22s.24-2.49.73-3.22c.49-.73,1.19-1.1,2.11-1.1s1.62.37,2.11,1.1c.49.73.73,1.81.73,3.22s-.24,2.49-.73,3.22c-.49.73-1.19,1.1-2.11,1.1s-1.62-.37-2.11-1.1ZM149.31,8.6c.3-.58.44-1.45.44-2.6s-.15-2.02-.44-2.6c-.3-.58-.73-.88-1.3-.88s-1,.29-1.3.88c-.3.58-.44,1.45-.44,2.6s.15,2.02.44,2.6c.3.58.73.88,1.3.88s1-.29,1.3-.88Z"/>
    <path class="cls-7" d="M152.05,5.71c0-.61-.02-1.11-.06-1.51h.91c.03.32.05.68.05,1.07h.04c.16-.37.41-.66.76-.87.34-.21.73-.32,1.15-.32s.79.11,1.09.32c.3.22.51.52.61.9.17-.38.42-.67.77-.89.34-.22.73-.33,1.16-.33.66,0,1.17.21,1.54.64s.56,1.02.56,1.78v3.71h-1.01v-3.62c0-.54-.11-.96-.34-1.25s-.56-.43-.99-.43-.77.16-1.04.47c-.27.32-.41.72-.41,1.22v3.61h-1.01v-3.58c0-.58-.1-1.02-.31-1.3-.21-.28-.52-.43-.95-.43-.26,0-.51.08-.74.24s-.42.37-.56.64c-.14.26-.21.55-.21.85v3.58h-1.01v-4.49Z"/>
    <path class="cls-7" d="M162.12,5.71c0-.61-.02-1.11-.06-1.51h.91c.03.32.05.68.05,1.07h.04c.16-.37.41-.66.76-.87.34-.21.73-.32,1.15-.32s.79.11,1.09.32c.3.22.51.52.61.9.17-.38.42-.67.77-.89.34-.22.73-.33,1.16-.33.66,0,1.17.21,1.54.64s.56,1.02.56,1.78v3.71h-1.01v-3.62c0-.54-.11-.96-.34-1.25s-.56-.43-.99-.43-.77.16-1.04.47c-.27.32-.41.72-.41,1.22v3.61h-1.01v-3.58c0-.58-.1-1.02-.31-1.3-.21-.28-.52-.43-.95-.43-.26,0-.51.08-.74.24s-.42.37-.56.64c-.14.26-.21.55-.21.85v3.58h-1.01v-4.49Z"/>
  </g>
  <line class="cls-4" x1="333.19" y1="562.88" x2="333.19" y2="43.91"/>
  <line class="cls-2" x1="339.89" y1="43.91" x2="327.16" y2="43.91"/>
  <line class="cls-2" x1="339.55" y1="562.88" x2="326.82" y2="562.88"/>
  <g>
    <path class="cls-7" d="M326.64,322.13c-.43.5-1.02.75-1.77.75-.5,0-.94-.12-1.32-.36-.38-.24-.67-.58-.86-1.03-.14.34-.39.6-.74.8-.35.2-.73.3-1.15.3-.66,0-1.18-.23-1.57-.69-.39-.46-.59-1.07-.59-1.84s.2-1.38.59-1.84c.39-.46.92-.69,1.57-.69.42,0,.8.1,1.15.3.35.2.59.47.74.8.19-.45.48-.79.86-1.03.38-.24.82-.36,1.32-.36.75,0,1.34.25,1.77.75.43.5.64,1.19.64,2.07s-.21,1.57-.64,2.07ZM321.91,319.02c-.25-.26-.58-.38-1-.38s-.74.13-.98.38c-.25.26-.37.6-.37,1.04s.12.79.37,1.04.58.38.98.38.75-.13,1-.38.37-.6.37-1.04-.12-.79-.37-1.04ZM325.93,318.8c-.29-.3-.69-.46-1.21-.46s-.91.15-1.19.46c-.28.3-.43.72-.43,1.26s.14.96.43,1.26c.28.3.68.46,1.19.46s.91-.15,1.21-.46c.29-.3.44-.72.44-1.26s-.15-.96-.44-1.26Z"/>
    <path class="cls-7" d="M326.95,315.14c-.22.47-.52.81-.91,1.04l-.65-.55c.3-.21.53-.5.71-.87.18-.37.26-.76.26-1.17,0-.53-.14-.95-.43-1.27s-.66-.47-1.12-.47c-.5,0-.9.2-1.19.59-.29.4-.43.94-.43,1.63v.43h-.88v-.42c0-.58-.15-1.05-.44-1.4s-.67-.53-1.13-.53c-.38,0-.68.12-.89.37s-.31.6-.31,1.04c0,.41.09.79.26,1.14.17.35.41.64.71.85l-.65.54c-.38-.26-.69-.62-.91-1.09-.22-.47-.33-.98-.33-1.54,0-.73.18-1.31.55-1.76.36-.44.85-.67,1.45-.67.47,0,.89.14,1.27.43.37.28.65.68.82,1.18.14-.62.39-1.09.76-1.42.37-.33.83-.5,1.39-.5.47,0,.89.12,1.25.35.36.23.65.56.85.99.2.43.31.92.31,1.48,0,.59-.11,1.12-.33,1.59Z"/>
    <path class="cls-7" d="M326.19,308.98c-.73.49-1.81.73-3.22.73s-2.49-.24-3.22-.73c-.73-.49-1.1-1.19-1.1-2.11s.37-1.62,1.1-2.11c.73-.49,1.81-.73,3.22-.73s2.49.24,3.22.73c.73.49,1.1,1.19,1.1,2.11s-.37,1.62-1.1,2.11ZM325.57,305.57c-.58-.3-1.45-.44-2.6-.44s-2.02.15-2.6.44c-.58.3-.88.73-.88,1.3s.29,1,.88,1.3c.58.3,1.45.44,2.6.44s2.02-.15,2.6-.44c.58-.3.88-.73.88-1.3s-.29-1-.88-1.3Z"/>
    <path class="cls-7" d="M322.68,302.83c-.61,0-1.11.02-1.51.06v-.91c.32-.03.68-.05,1.07-.05v-.04c-.37-.16-.66-.41-.87-.76-.21-.34-.32-.73-.32-1.15s.11-.79.32-1.09c.22-.3.52-.51.9-.61-.38-.17-.67-.42-.89-.77-.22-.34-.33-.73-.33-1.16,0-.66.21-1.17.64-1.54s1.02-.56,1.78-.56h3.71v1.01h-3.62c-.54,0-.96.11-1.25.34s-.43.56-.43.99.16.77.47,1.04c.32.27.72.41,1.22.41h3.61v1.01h-3.58c-.58,0-1.02.1-1.3.31-.28.21-.43.52-.43.95,0,.26.08.51.24.74s.37.42.64.56c.26.14.55.21.85.21h3.58v1.01h-4.49Z"/>
    <path class="cls-7" d="M322.68,292.77c-.61,0-1.11.02-1.51.06v-.91c.32-.03.68-.05,1.07-.05v-.04c-.37-.16-.66-.41-.87-.76-.21-.34-.32-.73-.32-1.15s.11-.79.32-1.09c.22-.3.52-.51.9-.61-.38-.17-.67-.42-.89-.77-.22-.34-.33-.73-.33-1.16,0-.66.21-1.17.64-1.54s1.02-.56,1.78-.56h3.71v1.01h-3.62c-.54,0-.96.11-1.25.34s-.43.56-.43.99.16.77.47,1.04c.32.27.72.41,1.22.41h3.61v1.01h-3.58c-.58,0-1.02.1-1.3.31-.28.21-.43.52-.43.95,0,.26.08.51.24.74s.37.42.64.56c.26.14.55.21.85.21h3.58v1.01h-4.49Z"/>
  </g>
  <line class="cls-6" x1="361.73" y1="154.16" x2="361.73" y2="562.88"/>
  <line class="cls-6" x1="637.99" y1="562.88" x2="361.73" y2="562.88"/>
  <line class="cls-6" x1="637.99" y1="43.91" x2="637.99" y2="562.88"/>
  <line class="cls-6" x1="469.21" y1="43.91" x2="637.99" y2="43.91"/>
  <line class="cls-6" x1="361.73" y1="154.16" x2="469.21" y2="43.91"/>
  <polygon class="cls-1" points="360.83 189.77 352.72 189.77 349.19 191.25 349.19 199.36 351.97 201.04 360.83 201.04 360.83 189.77"/>
  <g>
    <polygon class="cls-7" points="425.12 404.76 425.12 547.28 373.56 547.28 373.56 392.27 425.12 404.76"/>
    <g>
      <line class="cls-3" x1="373.56" y1="547.28" x2="373.56" y2="392.27"/>
      <line class="cls-3" x1="425.12" y1="404.76" x2="373.56" y2="392.27"/>
      <line class="cls-3" x1="425.12" y1="547.28" x2="425.12" y2="404.76"/>
      <line class="cls-3" x1="373.56" y1="547.28" x2="425.12" y2="547.28"/>
    </g>
  </g>
  <line class="cls-6" x1="361.73" y1="142.82" x2="457.02" y2="44.8"/>
  <line class="cls-6" x1="469.21" y1="43.91" x2="457.01" y2="44.8"/>
  <line class="cls-6" x1="361.73" y1="154.16" x2="361.73" y2="142.82"/>
  <line class="cls-6" x1="368.33" y1="136.03" x2="368.33" y2="136.03"/>
  <line class="cls-4" x1="16.22" y1="562.88" x2="16.22" y2="43.91"/>
  <line class="cls-2" x1="22.92" y1="43.91" x2="10.2" y2="43.91"/>
  <line class="cls-2" x1="22.58" y1="562.88" x2="9.86" y2="562.88"/>
  <g>
    <path class="cls-7" d="M9.68,322.13c-.43.5-1.02.75-1.77.75-.5,0-.94-.12-1.32-.36-.38-.24-.67-.58-.86-1.03-.14.34-.39.6-.74.8-.35.2-.73.3-1.15.3-.66,0-1.18-.23-1.57-.69-.39-.46-.59-1.07-.59-1.84s.2-1.38.59-1.84c.39-.46.92-.69,1.57-.69.42,0,.8.1,1.15.3.35.2.59.47.74.8.19-.45.48-.79.86-1.03.38-.24.82-.36,1.32-.36.75,0,1.34.25,1.77.75.43.5.64,1.19.64,2.07s-.21,1.57-.64,2.07ZM4.94,319.02c-.25-.26-.58-.38-1-.38s-.74.13-.98.38c-.25.26-.37.6-.37,1.04s.12.79.37,1.04.58.38.98.38.75-.13,1-.38.37-.6.37-1.04-.12-.79-.37-1.04ZM8.97,318.8c-.29-.3-.69-.46-1.21-.46s-.91.15-1.19.46c-.28.3-.43.72-.43,1.26s.14.96.43,1.26c.28.3.68.46,1.19.46s.91-.15,1.21-.46c.29-.3.44-.72.44-1.26s-.15-.96-.44-1.26Z"/>
    <path class="cls-7" d="M9.99,315.14c-.22.47-.52.81-.91,1.04l-.65-.55c.3-.21.53-.5.71-.87.18-.37.26-.76.26-1.17,0-.53-.14-.95-.43-1.27s-.66-.47-1.12-.47c-.5,0-.9.2-1.19.59-.29.4-.43.94-.43,1.63v.43h-.88v-.42c0-.58-.15-1.05-.44-1.4s-.67-.53-1.13-.53c-.38,0-.68.12-.89.37s-.31.6-.31,1.04c0,.41.09.79.26,1.14.17.35.41.64.71.85l-.65.54c-.38-.26-.69-.62-.91-1.09-.22-.47-.33-.98-.33-1.54,0-.73.18-1.31.55-1.76.36-.44.85-.67,1.45-.67.47,0,.89.14,1.27.43.37.28.65.68.82,1.18.14-.62.39-1.09.76-1.42.37-.33.83-.5,1.39-.5.47,0,.89.12,1.25.35.36.23.65.56.85.99.2.43.31.92.31,1.48,0,.59-.11,1.12-.33,1.59Z"/>
    <path class="cls-7" d="M9.22,308.98c-.73.49-1.81.73-3.22.73s-2.49-.24-3.22-.73c-.73-.49-1.1-1.19-1.1-2.11s.37-1.62,1.1-2.11c.73-.49,1.81-.73,3.22-.73s2.49.24,3.22.73c.73.49,1.1,1.19,1.1,2.11s-.37,1.62-1.1,2.11ZM8.6,305.57c-.58-.3-1.45-.44-2.6-.44s-2.02.15-2.6.44c-.58.3-.88.73-.88,1.3s.29,1,.88,1.3c.58.3,1.45.44,2.6.44s2.02-.15,2.6-.44c.58-.3.88-.73.88-1.3s-.29-1-.88-1.3Z"/>
    <path class="cls-7" d="M5.71,302.83c-.61,0-1.11.02-1.51.06v-.91c.32-.03.68-.05,1.07-.05v-.04c-.37-.16-.66-.41-.87-.76-.21-.34-.32-.73-.32-1.15s.11-.79.32-1.09c.22-.3.52-.51.9-.61-.38-.17-.67-.42-.89-.77-.22-.34-.33-.73-.33-1.16,0-.66.21-1.17.64-1.54s1.02-.56,1.78-.56h3.71v1.01h-3.62c-.54,0-.96.11-1.25.34s-.43.56-.43.99.16.77.47,1.04c.32.27.72.41,1.22.41h3.61v1.01h-3.58c-.58,0-1.02.1-1.3.31-.28.21-.43.52-.43.95,0,.26.08.51.24.74s.37.42.64.56c.26.14.55.21.85.21h3.58v1.01h-4.49Z"/>
    <path class="cls-7" d="M5.71,292.77c-.61,0-1.11.02-1.51.06v-.91c.32-.03.68-.05,1.07-.05v-.04c-.37-.16-.66-.41-.87-.76-.21-.34-.32-.73-.32-1.15s.11-.79.32-1.09c.22-.3.52-.51.9-.61-.38-.17-.67-.42-.89-.77-.22-.34-.33-.73-.33-1.16,0-.66.21-1.17.64-1.54s1.02-.56,1.78-.56h3.71v1.01h-3.62c-.54,0-.96.11-1.25.34s-.43.56-.43.99.16.77.47,1.04c.32.27.72.41,1.22.41h3.61v1.01h-3.58c-.58,0-1.02.1-1.3.31-.28.21-.43.52-.43.95,0,.26.08.51.24.74s.37.42.64.56c.26.14.55.21.85.21h3.58v1.01h-4.49Z"/>
  </g>
</svg>