<?xml version="1.0" encoding="UTF-8"?>
<svg id="Layer_1" data-name="Layer 1" xmlns="http://www.w3.org/2000/svg" viewBox="0 0 599.28 908.83">
  <defs>
    <style>
      .cls-1 {
        fill: #231f20;
        font-family: Sarabun-Regular, Sarabun;
        font-size: 12px;
      }

      .cls-2, .cls-3 {
        stroke-width: 3px;
      }

      .cls-2, .cls-3, .cls-4, .cls-5, .cls-6, .cls-7 {
        stroke: #1d1d1f;
      }

      .cls-2, .cls-3, .cls-5 {
        fill: none;
      }

      .cls-2, .cls-8, .cls-4, .cls-9, .cls-5, .cls-6 {
        stroke-miterlimit: 10;
      }

      .cls-3, .cls-7 {
        stroke-linejoin: round;
      }

      .cls-8 {
        stroke-linecap: round;
      }

      .cls-8, .cls-4, .cls-9, .cls-10 {
        fill: #fff;
      }

      .cls-8, .cls-9 {
        stroke: #231f20;
      }

      .cls-5 {
        stroke-width: 2px;
      }

      .cls-6 {
        stroke-width: 1.5px;
      }

      .cls-6, .cls-7, .cls-11 {
        fill: #1d1d1f;
      }

      .cls-11, .cls-10 {
        stroke-width: 0px;
      }
    </style>
  </defs>
  <polygon class="cls-4" points="373.48 835.18 373.48 885.62 382.82 885.62 383.26 835.18 373.48 835.18"/>
  <g>
    <polygon class="cls-11" points="35.03 362.59 35.03 178.45 95.99 25.46 184.61 25.46 245.58 178.45 245.58 362.59 35.03 362.59"/>
    <path class="cls-11" d="m184.1,26.21l60.72,152.38v183.25H35.78v-183.25L96.5,26.21h87.6m1.02-1.5h-89.64l-.38.94-60.72,152.38-.11.27v185.04h212.05v-185.04l-.11-.27L185.5,25.65l-.38-.94h0Z"/>
  </g>
  <polygon class="cls-2" points="35.78 361.84 244.83 361.84 245.07 835.18 233.89 840.56 46.8 840.56 35.78 835.18 35.78 361.84"/>
  <line class="cls-5" x1="35.78" y1="835.18" x2="245.07" y2="835.18"/>
  <path class="cls-11" d="m96.5,26.21h0m0,0l-60.72,152.38,15.26-89.24,45.46-63.14m0-1.5s-.07,0-.11,0c-.24.02-.46.09-.66.21-.14.09-.27.2-.38.33-.03.03-.05.06-.07.1l-45.45,63.13c-.13.19-.22.4-.26.62l-15.26,89.24c-.13.76.33,1.49,1.07,1.7.14.04.27.06.41.06.6,0,1.16-.36,1.39-.94L97.86,26.84c.09-.19.14-.41.14-.63,0-.81-.65-1.48-1.45-1.5-.02,0-.03,0-.05,0h0Zm0,3h0,0Z"/>
  <path class="cls-11" d="m184.1,26.21l46.79,63.14,13.94,89.24L184.1,26.21m0-1.5c-.25,0-.5.06-.73.19-.66.37-.94,1.17-.66,1.87l60.72,152.38c.23.58.79.94,1.39.94.13,0,.26-.02.4-.05.74-.2,1.2-.92,1.09-1.68l-13.94-89.24c-.04-.24-.13-.47-.28-.66l-46.79-63.14c-.29-.39-.74-.61-1.21-.61h0Z"/>
  <path class="cls-11" d="m245.07,886.82v16.81H33.6v-16.81h211.47m0-3H33.6c-1.66,0-3,1.34-3,3v16.81c0,1.66,1.34,3,3,3h211.47c1.66,0,3-1.34,3-3v-16.81c0-1.66-1.34-3-3-3h0Z"/>
  <rect class="cls-11" x="46.8" y="840.56" width="187.09" height="45.05"/>
  <polygon class="cls-4" points="136.01 840.56 136.01 885.62 145.36 885.62 145.79 840.56 136.01 840.56"/>
  <polygon class="cls-3" points="597.78 835.18 597.78 905 573.61 905 341.5 905 341.5 885.31 573.67 885.62 573.67 835.18 344.66 835.18 343.35 26.21 596.46 26.21 597.78 835.18"/>
  <line class="cls-5" x1="343.58" y1="171.51" x2="522.94" y2="26.65"/>
  <polygon class="cls-7" points="361.55 363.13 342.5 363.13 343.35 26.21 361.55 26.21 361.55 363.13"/>
  <line class="cls-9" x1="34.33" y1="15.86" x2="246.19" y2="15.86"/>
  <line class="cls-8" x1="246.19" y1="22.57" x2="246.19" y2="9.84"/>
  <line class="cls-8" x1="34.33" y1="22.23" x2="34.33" y2="9.5"/>
  <text class="cls-1" transform="translate(115.73 10.2)"><tspan x="0" y="0">300mm</tspan></text>
  <line class="cls-9" x1="342.29" y1="16.46" x2="597.78" y2="16.46"/>
  <line class="cls-8" x1="597.78" y1="22.57" x2="597.78" y2="9.84"/>
  <line class="cls-8" x1="342.29" y1="22.83" x2="342.29" y2="10.1"/>
  <text class="cls-1" transform="translate(448.22 10.92)"><tspan x="0" y="0">330mm</tspan></text>
  <line class="cls-9" x1="16.22" y1="906.55" x2="16.22" y2="24.93"/>
  <line class="cls-8" x1="22.92" y1="24.93" x2="10.2" y2="24.93"/>
  <line class="cls-8" x1="22.58" y1="906.55" x2="9.86" y2="906.55"/>
  <text class="cls-1" transform="translate(10.2 483) rotate(-90)"><tspan x="0" y="0">1200mm</tspan></text>
  <line class="cls-9" x1="322.2" y1="908.33" x2="322.2" y2="26.71"/>
  <line class="cls-8" x1="328.9" y1="26.71" x2="316.18" y2="26.71"/>
  <line class="cls-8" x1="328.56" y1="908.33" x2="315.84" y2="908.33"/>
  <text class="cls-1" transform="translate(316.18 484.77) rotate(-90)"><tspan x="0" y="0">1200mm</tspan></text>
  <polyline class="cls-6" points="36.38 641.87 36.38 833.8 245.43 833.8 245.43 641.87"/>
  <rect class="cls-10" x="104.4" y="665.86" width="65.47" height="1.08" rx=".15" ry=".15"/>
  <g>
    <path class="cls-10" d="m104.43,665.82s-.03-.05-.03-.08v-6.74s.01-.06.03-.08.05-.03.08-.03h1.13c.07,0,.11.04.12.12v5.6s0,.05.05.05h2.02c.07,0,.11.04.12.12v.97s-.01.06-.04.08c-.02.02-.05.03-.08.03h-3.33s-.06-.01-.08-.03Z"/>
    <path class="cls-10" d="m114.46,665.49c-.35-.3-.55-.7-.61-1.21,0-.07-.01-.17-.02-.32v-3.19c0-.6.17-1.08.53-1.44.35-.36.83-.54,1.42-.54.54,0,.98.15,1.33.44s.55.7.62,1.21c0,.07.01.17.02.32v3.19c0,.6-.18,1.08-.53,1.44s-.83.46-1.42.46c-.54,0-.98-.07-1.33-.36Zm1.76-.96c.11-.13.16-.3.16-.51v-3.31s0-.07,0-.12c-.02-.18-.09-.32-.19-.43-.11-.11-.24-.16-.4-.16-.18,0-.32.06-.43.19s-.16.3-.16.51v3.31s0,.07,0,.12c.02.18.09.32.19.43.11.11.24.16.39.16.19,0,.33-.06.44-.19Z"/>
    <path class="cls-10" d="m125.05,665.75l-1.31-6.74v-.02c-.01-.07.02-.11.1-.11h1.18c.07,0,.11.04.12.11l.55,3.59s.02.04.03.04.02-.01.03-.04l.53-3.59c.01-.07.05-.11.13-.11h.98c.07,0,.11.04.12.11l.57,3.59s.01.04.03.04.03-.01.03-.04l.49-3.59c.01-.07.05-.11.13-.11h1.15c.08,0,.11.04.11.13l-1.23,6.74c-.01.07-.05.11-.13.11h-1.05c-.07,0-.11-.04-.12-.11l-.57-3.69s-.01-.04-.02-.04-.02.01-.04.04l-.51,3.69c-.01.07-.05.11-.13.11h-1.03c-.08,0-.12-.04-.13-.11Z"/>
    <path class="cls-10" d="m139.95,658.91s.03.05.03.08v.97s-.01.06-.04.08-.05.03-.08.03h-1.22s-.02,0-.03.01-.01.02-.01.03v5.6s-.01.06-.03.08c-.02.02-.05.03-.08.03h-1.14s-.06-.01-.08-.03c-.02-.02-.03-.05-.03-.08v-5.6s0-.05-.05-.05h-1.16c-.07,0-.11-.04-.12-.12v-.97s.01-.06.04-.08c.02-.02.05-.03.08-.03h3.84s.06.01.08.03Z"/>
    <path class="cls-10" d="m148.58,658.91s.05-.03.08-.03h1.14s.06.01.08.03c.02.02.03.05.03.08v6.74s-.01.06-.03.08c-.02.02-.05.03-.08.03h-1.14s-.06-.01-.08-.03c-.02-.02-.03-.05-.03-.08v-2.72s-.01-.05-.04-.05h-.97s-.06.02-.05.05v2.72s-.01.06-.03.08c-.02.02-.05.03-.09.03h-1.13s-.06-.01-.08-.03c-.02-.02-.03-.05-.03-.08v-6.74s.01-.06.03-.08.05-.03.08-.03h1.13c.07,0,.11.04.12.12v2.71s.01.05.04.05h.97s.04-.02.05-.05v-2.71s.01-.06.03-.08Z"/>
    <path class="cls-10" d="m159.73,660.05s-.05.03-.08.03h-2.02s-.05.02-.04.05v1.57s.01.05.04.05h1.17s.06.01.08.03.03.05.03.08v.97s-.01.06-.04.08-.05.03-.08.03h-1.16s-.06.02-.05.05v1.58s.01.05.05.05h2.01s.06.01.09.03.04.05.04.08v.97s-.01.06-.04.08c-.02.02-.05.03-.08.03h-3.32s-.06-.01-.08-.03c-.02-.02-.03-.05-.03-.08v-6.74s.01-.06.03-.08.05-.03.08-.03h3.32s.06.01.08.03.03.05.03.08v.97s-.01.06-.04.08Z"/>
    <path class="cls-10" d="m168.48,665.76l-.75-2.75s-.03-.04-.05-.04h-.32s-.06.02-.05.05v2.72s-.01.06-.03.08c-.02.02-.05.03-.09.03h-1.13s-.06-.01-.08-.03c-.02-.02-.03-.05-.03-.08v-6.74s.01-.06.03-.08.05-.03.08-.03h1.95c.48,0,.88.16,1.2.47.32.32.52.74.58,1.26.02.16.03.28.03.37,0,.39-.07.73-.22,1.03-.15.3-.35.54-.61.7-.01,0-.02.01-.03.02,0,0,0,.02,0,.03l.89,2.94v.02s0,.06-.02.08c-.02.02-.05.03-.08.03h-1.16c-.07,0-.11-.03-.13-.1Zm-1.17-5.62v1.7s0,.05.05.05h.43c.23,0,.4-.1.53-.3.13-.2.17-.46.13-.79-.03-.22-.1-.39-.22-.52-.12-.13-.26-.19-.44-.19h-.44s-.05.02-.04.05Z"/>
  </g>
  <polygon class="cls-7" points="361.55 835.4 342.5 835.4 343.35 641.87 361.55 641.87 361.55 835.4"/>
</svg>