<?xml version="1.0" encoding="UTF-8"?>
<svg id="Layer_1" data-name="Layer 1" xmlns="http://www.w3.org/2000/svg" viewBox="0 0 1010.84 1221.82">
  <defs>
    <style>
      .cls-1 {
        fill: #1d1d1f;
      }

      .cls-1, .cls-2, .cls-3, .cls-4 {
        stroke-miterlimit: 10;
      }

      .cls-1, .cls-4 {
        stroke: #1d1d1f;
        stroke-width: 2px;
      }

      .cls-2 {
        stroke-linecap: round;
      }

      .cls-2, .cls-3 {
        stroke: #231f20;
      }

      .cls-2, .cls-3, .cls-5 {
        fill: #fff;
      }

      .cls-4 {
        fill: none;
      }

      .cls-6 {
        fill: #231f20;
      }

      .cls-6, .cls-5 {
        stroke-width: 0px;
      }
    </style>
  </defs>
  <polyline class="cls-1" points="73.93 93.51 73.93 358.01 82.22 354.99 1003.82 354.99 1003.82 354.99 1009.84 358.01 1009.84 93.51 1003.82 85.97 79.21 85.97 73.93 93.51 73.93 358.01"/>
  <polyline class="cls-4" points="73.93 358.01 73.93 688.06 1009.84 688.06 1009.84 358.01 1003.82 354.99 82.22 354.99 73.93 358.01"/>
  <polyline class="cls-1" points="73.93 688.06 73.93 1139.44 1009.84 1139.44 1009.84 688.06 73.93 688.06"/>
  <polyline class="cls-4" points="73.93 1139.44 73.93 1153.39 79.21 1159.03 1003.82 1159.03 1009.84 1149.24 1009.84 1139.44 73.93 1139.44"/>
  <polyline class="cls-4" points="111.61 1159.03 111.61 1220.82 972.17 1220.82 972.17 1159.03 111.61 1159.03"/>
  <polygon class="cls-4" points="73.93 71.66 82.22 66.38 1003.82 66.38 1009.84 76.18 1009.84 93.51 1003.82 85.97 79.21 85.97 73.93 93.51 73.93 71.66"/>
  <rect class="cls-5" x="509.15" y="710.4" width="65.47" height="1.08" rx=".15" ry=".15"/>
  <g>
    <path class="cls-5" d="m509.18,710.37s-.03-.05-.03-.08v-6.74s.01-.06.03-.08.05-.03.08-.03h1.13c.07,0,.11.04.12.12v5.6s0,.05.05.05h2.02c.07,0,.11.04.12.12v.97s-.01.06-.04.08c-.02.02-.05.03-.08.03h-3.33s-.06-.01-.08-.03Z"/>
    <path class="cls-5" d="m519.22,710.04c-.35-.3-.55-.7-.61-1.21,0-.07-.01-.17-.02-.32v-3.19c0-.6.17-1.08.53-1.44.35-.36.83-.54,1.42-.54.54,0,.98.15,1.33.44s.55.7.62,1.21c0,.07.01.17.02.32v3.19c0,.6-.18,1.08-.53,1.44s-.83.46-1.42.46c-.54,0-.98-.07-1.33-.36Zm1.76-.96c.11-.13.16-.3.16-.51v-3.31s0-.07,0-.12c-.02-.18-.09-.32-.19-.43-.11-.11-.24-.16-.4-.16-.18,0-.32.06-.43.19s-.16.3-.16.51v3.31s0,.07,0,.12c.02.18.09.32.19.43.11.11.24.16.39.16.19,0,.33-.06.44-.19Z"/>
    <path class="cls-5" d="m529.8,710.3l-1.31-6.74v-.02c-.01-.07.02-.11.1-.11h1.18c.07,0,.11.04.12.11l.55,3.59s.02.04.03.04.02-.01.03-.04l.53-3.59c.01-.07.05-.11.13-.11h.98c.07,0,.11.04.12.11l.57,3.59s.01.04.03.04.03-.01.03-.04l.49-3.59c.01-.07.05-.11.13-.11h1.15c.08,0,.11.04.11.13l-1.23,6.74c-.01.07-.05.11-.13.11h-1.05c-.07,0-.11-.04-.12-.11l-.57-3.69s-.01-.04-.02-.04-.02.01-.04.04l-.51,3.69c-.01.07-.05.11-.13.11h-1.03c-.08,0-.12-.04-.13-.11Z"/>
    <path class="cls-5" d="m544.7,703.46s.03.05.03.08v.97s-.01.06-.04.08-.05.03-.08.03h-1.22s-.02,0-.03.01-.01.02-.01.03v5.6s-.01.06-.03.08c-.02.02-.05.03-.08.03h-1.14s-.06-.01-.08-.03c-.02-.02-.03-.05-.03-.08v-5.6s0-.05-.05-.05h-1.16c-.07,0-.11-.04-.12-.12v-.97s.01-.06.04-.08c.02-.02.05-.03.08-.03h3.84s.06.01.08.03Z"/>
    <path class="cls-5" d="m553.33,703.46s.05-.03.08-.03h1.14s.06.01.08.03c.02.02.03.05.03.08v6.74s-.01.06-.03.08c-.02.02-.05.03-.08.03h-1.14s-.06-.01-.08-.03c-.02-.02-.03-.05-.03-.08v-2.72s-.01-.05-.04-.05h-.97s-.06.02-.05.05v2.72s-.01.06-.03.08c-.02.02-.05.03-.09.03h-1.13s-.06-.01-.08-.03c-.02-.02-.03-.05-.03-.08v-6.74s.01-.06.03-.08.05-.03.08-.03h1.13c.07,0,.11.04.12.12v2.71s.01.05.04.05h.97s.04-.02.05-.05v-2.71s.01-.06.03-.08Z"/>
    <path class="cls-5" d="m564.49,704.6s-.05.03-.08.03h-2.02s-.05.02-.04.05v1.57s.01.05.04.05h1.17s.06.01.08.03.03.05.03.08v.97s-.01.06-.04.08-.05.03-.08.03h-1.16s-.06.02-.05.05v1.58s.01.05.05.05h2.01s.06.01.09.03.04.05.04.08v.97s-.01.06-.04.08c-.02.02-.05.03-.08.03h-3.32s-.06-.01-.08-.03c-.02-.02-.03-.05-.03-.08v-6.74s.01-.06.03-.08.05-.03.08-.03h3.32s.06.01.08.03.03.05.03.08v.97s-.01.06-.04.08Z"/>
    <path class="cls-5" d="m573.23,710.31l-.75-2.75s-.03-.04-.05-.04h-.32s-.06.02-.05.05v2.72s-.01.06-.03.08c-.02.02-.05.03-.09.03h-1.13s-.06-.01-.08-.03c-.02-.02-.03-.05-.03-.08v-6.74s.01-.06.03-.08.05-.03.08-.03h1.95c.48,0,.88.16,1.2.47.32.32.52.74.58,1.26.02.16.03.28.03.37,0,.39-.07.73-.22,1.03-.15.3-.35.54-.61.7-.01,0-.02.01-.03.02,0,0,0,.02,0,.03l.89,2.94v.02s0,.06-.02.08c-.02.02-.05.03-.08.03h-1.16c-.07,0-.11-.03-.13-.1Zm-1.17-5.62v1.7s0,.05.05.05h.43c.23,0,.4-.1.53-.3.13-.2.17-.46.13-.79-.03-.22-.1-.39-.22-.52-.12-.13-.26-.19-.44-.19h-.44s-.05.02-.04.05Z"/>
  </g>
  <line class="cls-3" x1="30.72" y1="1220.82" x2="30.72" y2="66.38"/>
  <line class="cls-2" x1="39.5" y1="66.38" x2="22.84" y2="66.38"/>
  <line class="cls-2" x1="39.05" y1="1220.82" x2="22.39" y2="1220.82"/>
  <g>
    <path class="cls-6" d="m15.11,678.65v-2.85H2.8l1.92,3.27h-1.99l-2.49-4.06v-1.4h14.87v-2.82h1.73v7.85h-1.73Z"/>
    <path class="cls-6" d="m14.96,667.15c-.82-1.14-1.81-2.27-2.95-3.4-1.15-1.13-2.37-2.09-3.66-2.88-1.3-.79-2.52-1.19-3.68-1.19-.89,0-1.58.25-2.1.76-.51.51-.77,1.19-.77,2.06,0,.79.19,1.54.57,2.24.38.7.89,1.26,1.52,1.67l-1.3,1.16c-.81-.49-1.44-1.19-1.9-2.1-.46-.91-.69-1.91-.69-3,0-1.55.42-2.77,1.24-3.68.83-.9,1.95-1.35,3.36-1.35,1.68,0,3.42.66,5.24,1.98,1.82,1.32,3.57,2.94,5.26,4.85v-7.56h1.73v10.43h-1.87Z"/>
    <path class="cls-6" d="m14.9,653.28c-1.45.96-3.57,1.45-6.37,1.45s-4.92-.48-6.37-1.45c-1.45-.96-2.17-2.36-2.17-4.17s.72-3.21,2.17-4.17c1.45-.96,3.57-1.45,6.37-1.45s4.92.48,6.37,1.45c1.45.96,2.17,2.36,2.17,4.17s-.72,3.21-2.17,4.17Zm-1.22-6.73c-1.15-.58-2.87-.88-5.15-.88s-3.99.29-5.15.88-1.73,1.44-1.73,2.56.58,1.98,1.73,2.56,2.87.88,5.15.88,3.99-.29,5.15-.88c1.15-.58,1.73-1.44,1.73-2.56s-.58-1.98-1.73-2.56Z"/>
    <path class="cls-6" d="m14.9,640.23c-1.45.96-3.57,1.45-6.37,1.45s-4.92-.48-6.37-1.45c-1.45-.96-2.17-2.36-2.17-4.17s.72-3.21,2.17-4.17c1.45-.96,3.57-1.45,6.37-1.45s4.92.48,6.37,1.45c1.45.96,2.17,2.36,2.17,4.17s-.72,3.21-2.17,4.17Zm-1.22-6.73c-1.15-.58-2.87-.88-5.15-.88s-3.99.29-5.15.88-1.73,1.44-1.73,2.56.58,1.98,1.73,2.56,2.87.88,5.15.88,3.99-.29,5.15-.88c1.15-.58,1.73-1.44,1.73-2.56s-.58-1.98-1.73-2.56Z"/>
    <path class="cls-6" d="m7.97,628.09c-1.2,0-2.2.04-2.99.12v-1.8c.63-.06,1.34-.09,2.11-.09v-.07c-.73-.32-1.3-.81-1.72-1.49s-.63-1.44-.63-2.28.21-1.56.64-2.16c.43-.6,1.02-1,1.78-1.21-.74-.33-1.33-.84-1.77-1.52-.43-.68-.65-1.45-.65-2.3,0-1.3.42-2.31,1.26-3.05.84-.74,2.01-1.1,3.51-1.1h7.33v1.99h-7.16c-1.07,0-1.9.23-2.47.68-.57.45-.85,1.1-.85,1.96s.31,1.53.94,2.06c.62.54,1.43.81,2.41.81h7.14v1.99h-7.07c-1.15,0-2.01.21-2.57.62-.56.41-.84,1.04-.84,1.87,0,.52.16,1.01.47,1.47.32.46.73.83,1.26,1.1.52.28,1.08.42,1.68.42h7.07v1.99H7.97Z"/>
    <path class="cls-6" d="m7.97,608.2c-1.2,0-2.2.04-2.99.12v-1.8c.63-.06,1.34-.09,2.11-.09v-.07c-.73-.32-1.3-.81-1.72-1.49s-.63-1.44-.63-2.28.21-1.56.64-2.16c.43-.6,1.02-1,1.78-1.21-.74-.33-1.33-.84-1.77-1.52-.43-.68-.65-1.45-.65-2.3,0-1.3.42-2.31,1.26-3.05.84-.74,2.01-1.1,3.51-1.1h7.33v1.99h-7.16c-1.07,0-1.9.23-2.47.68-.57.45-.85,1.1-.85,1.96s.31,1.53.94,2.06c.62.54,1.43.81,2.41.81h7.14v1.99h-7.07c-1.15,0-2.01.21-2.57.62-.56.41-.84,1.04-.84,1.87,0,.52.16,1.01.47,1.47s.73.83,1.26,1.1c.52.28,1.08.42,1.68.42h7.07v1.99H7.97Z"/>
  </g>
  <line class="cls-3" x1="73.93" y1="30.72" x2="1009.84" y2="30.72"/>
  <line class="cls-2" x1="1009.84" y1="39.5" x2="1009.84" y2="22.84"/>
  <line class="cls-2" x1="73.93" y1="39.06" x2="73.93" y2="22.39"/>
  <g>
    <path class="cls-6" d="m508.79,15.11h2.85V2.8l-3.27,1.92v-1.99l4.06-2.49h1.4v14.87h2.82v1.73h-7.85v-1.73Z"/>
    <path class="cls-6" d="m520.29,14.96c1.14-.82,2.27-1.81,3.4-2.95,1.13-1.15,2.09-2.37,2.88-3.66.79-1.3,1.19-2.52,1.19-3.68,0-.89-.25-1.58-.76-2.1-.51-.51-1.19-.77-2.06-.77-.79,0-1.54.19-2.24.57-.7.38-1.26.89-1.67,1.52l-1.16-1.3c.49-.81,1.19-1.44,2.1-1.9.91-.46,1.91-.69,3-.69,1.55,0,2.77.42,3.68,1.24.9.83,1.35,1.95,1.35,3.36,0,1.68-.66,3.42-1.98,5.24-1.32,1.82-2.94,3.57-4.85,5.26h7.56v1.73h-10.43v-1.87Z"/>
    <path class="cls-6" d="m534.16,14.9c-.96-1.45-1.45-3.57-1.45-6.37s.48-4.92,1.45-6.37c.96-1.45,2.36-2.17,4.17-2.17s3.21.72,4.17,2.17c.96,1.45,1.45,3.57,1.45,6.37s-.48,4.92-1.45,6.37c-.96,1.45-2.36,2.17-4.17,2.17s-3.21-.72-4.17-2.17Zm6.73-1.22c.58-1.15.88-2.87.88-5.15s-.29-3.99-.88-5.15-1.44-1.73-2.56-1.73-1.98.58-2.56,1.73-.88,2.87-.88,5.15.29,3.99.88,5.15c.58,1.15,1.44,1.73,2.56,1.73s1.98-.58,2.56-1.73Z"/>
    <path class="cls-6" d="m547.21,14.9c-.96-1.45-1.45-3.57-1.45-6.37s.48-4.92,1.45-6.37c.96-1.45,2.36-2.17,4.17-2.17s3.21.72,4.17,2.17c.96,1.45,1.45,3.57,1.45,6.37s-.48,4.92-1.45,6.37c-.96,1.45-2.36,2.17-4.17,2.17s-3.21-.72-4.17-2.17Zm6.73-1.22c.58-1.15.88-2.87.88-5.15s-.29-3.99-.88-5.15-1.44-1.73-2.56-1.73-1.98.58-2.56,1.73-.88,2.87-.88,5.15.29,3.99.88,5.15c.58,1.15,1.44,1.73,2.56,1.73s1.98-.58,2.56-1.73Z"/>
    <path class="cls-6" d="m559.35,7.97c0-1.2-.04-2.2-.12-2.99h1.8c.06.63.09,1.34.09,2.11h.07c.32-.73.81-1.3,1.49-1.72s1.44-.63,2.28-.63,1.56.21,2.16.64c.6.43,1,1.02,1.21,1.78.33-.74.84-1.33,1.52-1.77.68-.43,1.45-.65,2.3-.65,1.3,0,2.31.42,3.05,1.26s1.1,2.01,1.1,3.51v7.33h-1.99v-7.16c0-1.07-.22-1.9-.68-2.47-.45-.57-1.1-.85-1.96-.85s-1.53.31-2.06.94c-.54.62-.81,1.43-.81,2.41v7.14h-1.99v-7.07c0-1.15-.21-2.01-.62-2.57-.41-.56-1.04-.84-1.87-.84-.52,0-1.01.16-1.47.47-.46.32-.83.73-1.1,1.26-.28.52-.42,1.08-.42,1.68v7.07h-1.99V7.97Z"/>
    <path class="cls-6" d="m579.24,7.97c0-1.2-.04-2.2-.12-2.99h1.8c.06.63.09,1.34.09,2.11h.07c.32-.73.81-1.3,1.49-1.72s1.44-.63,2.28-.63,1.56.21,2.16.64c.6.43,1,1.02,1.21,1.78.33-.74.84-1.33,1.52-1.77.68-.43,1.45-.65,2.3-.65,1.3,0,2.31.42,3.05,1.26.74.84,1.1,2.01,1.1,3.51v7.33h-1.99v-7.16c0-1.07-.23-1.9-.68-2.47-.45-.57-1.1-.85-1.96-.85s-1.53.31-2.06.94c-.54.62-.81,1.43-.81,2.41v7.14h-1.99v-7.07c0-1.15-.21-2.01-.62-2.57-.41-.56-1.04-.84-1.87-.84-.52,0-1.01.16-1.47.47s-.83.73-1.1,1.26c-.28.52-.42,1.08-.42,1.68v7.07h-1.99V7.97Z"/>
  </g>
</svg>