<svg id="Layer_1" data-name="Layer 1" xmlns="http://www.w3.org/2000/svg" viewBox="0 0 401.65 57.95"><defs><style>.cls-1{fill:#c69963;}</style></defs><path class="cls-1" d="M.22,49.54a.73.73,0,0,1-.22-.6V.85A1,1,0,0,1,.25.25.7.7,0,0,1,.82,0h8a.83.83,0,0,1,.89.85v40c-.07.24,0,.35.32.35H28a.84.84,0,0,1,.89.86v6.9a1,1,0,0,1-.24.6.73.73,0,0,1-.58.25H.82A.79.79,0,0,1,.22,49.54Z"/><path class="cls-1" d="M62.26,47.2a13,13,0,0,1-4.37-8.65c-.06-.47-.1-1.23-.14-2.27l0-22.76q0-6.4,3.79-10.25C64.06.71,69.4,0,73.62,0,77.47,0,82.48.49,85,2.6a12.92,12.92,0,0,1,4.41,8.64c.06.47.1,1.23.14,2.28l0,22.76q0,6.4-3.83,10.24c-2.56,2.56-7.85,3.27-12.07,3.27C69.79,49.79,64.72,49.31,62.26,47.2Zm16.35-6.83a5.62,5.62,0,0,0,1.15-3.67l0-23.61a3.94,3.94,0,0,0,0-.86,5,5,0,0,0-1.37-3.05C77.62,8.42,76.69,8,73.63,8c-3.73,0-4.2.63-5,1.38a5,5,0,0,0-1.16,3.67l0,23.2a8.33,8.33,0,0,0,0,1.27,4,4,0,0,0,1.37,3.06c.8.71,1.93,1.13,4.75,1.13C76.69,41.75,77.85,41.29,78.61,40.37Z"/><path class="cls-1" d="M127.29,49,118,.92l0-.14c-.06-.52.19-.78.76-.78h8.39a.79.79,0,0,1,.88.78l3.93,25.61c.07.19.15.28.24.28s.16-.09.18-.28L136.09.78A.82.82,0,0,1,137,0h7a.8.8,0,0,1,.88.78l4.07,25.61c0,.19.09.28.21.28s.19-.09.21-.28L152.8.78a.82.82,0,0,1,.9-.78h8.18c.57,0,.82.31.76.92L153.89,49a.82.82,0,0,1-.9.78h-7.47a.8.8,0,0,1-.88-.78l-4.08-26.32c0-.19-.09-.28-.18-.28s-.18.09-.25.28L136.46,49a.82.82,0,0,1-.9.78h-7.32A.83.83,0,0,1,127.29,49Z"/><path class="cls-1" d="M223.23.25a.75.75,0,0,1,.22.6v6.9a1.07,1.07,0,0,1-.24.61.76.76,0,0,1-.58.25h-9.85a.3.3,0,0,0-.24.1.34.34,0,0,0-.08.25v40a1,1,0,0,1-.25.6.72.72,0,0,1-.57.25h-8.11a.79.79,0,0,1-.6-.25.7.7,0,0,1-.22-.6V9c.07-.23,0-.35-.33-.35h-10c-.52,0-.81-.29-.88-.86V.85a1,1,0,0,1,.25-.6A.7.7,0,0,1,192.3,0h30.33A.79.79,0,0,1,223.23.25Z"/><path class="cls-1" d="M274.62.25a.7.7,0,0,1,.57-.25h8.11a.79.79,0,0,1,.6.25.79.79,0,0,1,.22.6V48.94a1,1,0,0,1-.25.6.72.72,0,0,1-.57.25h-8.11a.79.79,0,0,1-.6-.25.7.7,0,0,1-.22-.6l0-19.42c0-.24-.13-.36-.32-.36H262.36c-.28,0-.41.12-.38.36l0,19.42a.89.89,0,0,1-.28.6.84.84,0,0,1-.61.25h-8a.79.79,0,0,1-.6-.25.73.73,0,0,1-.22-.6V.85a1,1,0,0,1,.25-.6.71.71,0,0,1,.57-.25h8a.83.83,0,0,1,.89.85l0,19.35c0,.24.13.36.32.36H274c.18,0,.31-.12.38-.36l0-19.35A1,1,0,0,1,274.62.25Z"/><path class="cls-1" d="M340.22,8.36a.74.74,0,0,1-.57.25H323c-.24,0-.34.12-.31.35l-.05,11.24q0,.36.33.36l15.31,0a.82.82,0,0,1,.6.25.73.73,0,0,1,.22.61v6.9a1,1,0,0,1-.24.6.73.73,0,0,1-.58.25l-15.24,0c-.28,0-.41.12-.38.36l0,11.31c-.07.24,0,.35.32.35h16.58a1,1,0,0,1,.64.25.72.72,0,0,1,.25.61v6.9a1,1,0,0,1-.24.6.73.73,0,0,1-.58.25H313.76a.79.79,0,0,1-.6-.25.73.73,0,0,1-.22-.6V.85a1,1,0,0,1,.25-.6.7.7,0,0,1,.57-.25h25.9a.82.82,0,0,1,.6.25.75.75,0,0,1,.21.6v6.9A1,1,0,0,1,340.22,8.36Z"/><path class="cls-1" d="M391.53,49.08,386.2,29.45c-.12-.19-.25-.29-.39-.29h-6.14c-.28,0-.41.12-.38.36l0,19.42a.94.94,0,0,1-.28.6.84.84,0,0,1-.62.25h-8a.79.79,0,0,1-.6-.25.73.73,0,0,1-.22-.6V.85a1,1,0,0,1,.25-.6A.7.7,0,0,1,370.4,0h17.81a11.84,11.84,0,0,1,8.59,3.38,14.55,14.55,0,0,1,4.16,9,20.22,20.22,0,0,1,.19,2.63,16.89,16.89,0,0,1-1.55,7.36,12,12,0,0,1-4.33,5,.42.42,0,0,0-.19.18.23.23,0,0,0,0,.25l6.34,21,0,.14a.73.73,0,0,1-.75.85h-8.25A.92.92,0,0,1,391.53,49.08ZM379.33,9V21.13c-.07.23,0,.35.32.35h6.93a4.29,4.29,0,0,0,3.79-2.13,8.27,8.27,0,0,0,.94-5.62A6.53,6.53,0,0,0,389.75,10a4.09,4.09,0,0,0-3.12-1.38h-7C379.4,8.61,379.3,8.73,379.33,9Z"/><rect class="cls-1" y="50.21" width="401.65" height="7.74" rx="0.15"/></svg>