<?xml version="1.0" encoding="UTF-8"?>
<svg id="Layer_1" data-name="Layer 1" xmlns="http://www.w3.org/2000/svg" viewBox="0 0 482.17 425.72">
  <defs>
    <style>
      .cls-1, .cls-2, .cls-3 {
        fill: #fff;
      }

      .cls-4, .cls-5 {
        fill: #231f20;
      }

      .cls-6 {
        fill: #1d1d1f;
      }

      .cls-2, .cls-7 {
        stroke-linecap: round;
      }

      .cls-2, .cls-3 {
        stroke: #231f20;
        stroke-miterlimit: 10;
      }

      .cls-7 {
        fill: none;
        stroke: #1d1d1f;
        stroke-linejoin: round;
        stroke-width: 2px;
      }

      .cls-5 {
        font-family: MyriadPro-Regular, 'Myriad Pro';
        font-size: 12px;
      }
    </style>
  </defs>
  <path class="cls-6" d="m241.91,34.16v362.86H31.67V34.16h210.24m0-2H31.67c-1.1,0-2,.9-2,2v362.86c0,1.1.9,2,2,2h210.24c1.1,0,2-.9,2-2V34.16c0-1.1-.9-2-2-2h0Z"/>
  <path class="cls-6" d="m480.17,34.16v362.86h-156.23V34.16h156.23m0-2h-156.23c-1.1,0-2,.9-2,2v362.86c0,1.1.9,2,2,2h156.23c1.1,0,2-.9,2-2V34.16c0-1.1-.9-2-2-2h0Z"/>
  <rect class="cls-6" x="40.26" y="261.43" width="193.36" height="128.01"/>
  <rect class="cls-6" x="40.26" y="42.03" width="193.36" height="211.54"/>
  <polyline class="cls-7" points="49.65 399.13 49.65 424.72 224.39 424.72 224.39 399.13"/>
  <rect class="cls-1" x="119.55" y="272.48" width="37.81" height=".63" rx=".15" ry=".15"/>
  <g>
    <path class="cls-1" d="m119.57,272.46s-.02-.03-.02-.05v-3.89s0-.04.02-.05.03-.02.05-.02h.65s.07.02.07.07v3.24s0,.03.03.03h1.17s.07.02.07.07v.56s0,.04-.02.05c-.01.01-.03.02-.05.02h-1.92s-.04,0-.05-.02Z"/>
    <path class="cls-1" d="m125.37,272.27c-.2-.17-.32-.4-.35-.7,0-.04,0-.1-.01-.18v-1.84c0-.35.1-.62.31-.83.2-.21.48-.31.82-.31.31,0,.57.09.77.26s.32.4.36.7c0,.04,0,.1.01.18v1.84c0,.35-.1.62-.31.83s-.48.26-.82.26c-.31,0-.57-.04-.77-.21Zm1.01-.55c.06-.07.09-.17.09-.3v-1.91s0-.04,0-.07c-.01-.1-.05-.19-.11-.25-.06-.06-.14-.09-.23-.09-.1,0-.19.04-.25.11s-.09.17-.09.3v1.91s0,.04,0,.07c.01.1.05.19.11.25.06.06.14.09.22.09.11,0,.19-.04.25-.11Z"/>
    <path class="cls-1" d="m131.48,272.42l-.75-3.89h0c0-.05.02-.07.06-.07h.68s.07.02.07.06l.32,2.07s.01.02.02.02.01,0,.01-.02l.3-2.07s.03-.06.07-.06h.56s.07.02.07.06l.33,2.07s0,.02.02.02.02,0,.02-.02l.28-2.07s.03-.06.07-.06h.66s.07.02.06.07l-.71,3.89s-.03.06-.07.06h-.6s-.07-.02-.07-.06l-.33-2.13s0-.02-.01-.02-.01,0-.02.02l-.3,2.13s-.03.06-.07.06h-.59s-.07-.02-.08-.06Z"/>
    <path class="cls-1" d="m140.08,268.47s.02.03.02.05v.56s0,.04-.02.05-.03.02-.05.02h-.7s-.01,0-.02,0,0,.01,0,.02v3.24s0,.04-.02.05c-.01.01-.03.02-.05.02h-.66s-.04,0-.05-.02c-.01-.01-.02-.03-.02-.05v-3.24s0-.03-.03-.03h-.67s-.07-.02-.07-.07v-.56s0-.04.02-.05c.01-.01.03-.02.05-.02h2.22s.04,0,.05.02Z"/>
    <path class="cls-1" d="m145.07,268.47s.03-.02.05-.02h.66s.04,0,.05.02c.01.01.02.03.02.05v3.89s0,.04-.02.05c-.01.01-.03.02-.05.02h-.66s-.04,0-.05-.02c-.01-.01-.02-.03-.02-.05v-1.57s0-.03-.02-.03h-.56s-.03,0-.03.03v1.57s0,.04-.02.05c-.01.01-.03.02-.05.02h-.65s-.04,0-.05-.02c-.01-.01-.02-.03-.02-.05v-3.89s0-.04.02-.05.03-.02.05-.02h.65s.07.02.07.07v1.57s0,.03.02.03h.56s.03,0,.03-.03v-1.57s0-.04.02-.05Z"/>
    <path class="cls-1" d="m151.51,269.13s-.03.02-.05.02h-1.17s-.03,0-.03.03v.91s0,.03.02.03h.67s.04,0,.05.02.02.03.02.05v.56s0,.04-.02.05-.03.02-.05.02h-.67s-.03,0-.03.03v.92s0,.03.03.03h1.16s.04,0,.05.02.02.03.02.05v.56s0,.04-.02.05c-.01.01-.03.02-.05.02h-1.92s-.04,0-.05-.02c-.01-.01-.02-.03-.02-.05v-3.89s0-.04.02-.05.03-.02.05-.02h1.92s.04,0,.05.02.02.03.02.05v.56s0,.04-.02.05Z"/>
    <path class="cls-1" d="m156.56,272.42l-.43-1.59s-.02-.02-.03-.02h-.18s-.03,0-.03.03v1.57s0,.04-.02.05c-.01.01-.03.02-.05.02h-.65s-.04,0-.05-.02c-.01-.01-.02-.03-.02-.05v-3.89s0-.04.02-.05.03-.02.05-.02h1.13c.28,0,.51.09.7.27.19.18.3.43.34.73.01.09.02.16.01.21,0,.22-.04.42-.13.6-.08.17-.2.31-.35.41,0,0-.01,0-.02.01,0,0,0,.01,0,.02l.51,1.7h0s0,.05-.01.06c-.01.01-.03.02-.05.02h-.67s-.06-.02-.08-.06Zm-.67-3.25v.98s0,.03.03.03h.25c.13,0,.23-.06.31-.17.07-.12.1-.27.08-.45-.02-.13-.06-.23-.13-.3-.07-.07-.15-.11-.25-.11h-.25s-.03,0-.03.03Z"/>
  </g>
  <line class="cls-3" x1="14.29" y1="424.72" x2="14.29" y2="32.79"/>
  <line class="cls-2" x1="20.65" y1="32.79" x2="7.93" y2="32.79"/>
  <line class="cls-2" x1="20.65" y1="424.72" x2="7.93" y2="424.72"/>
  <line class="cls-3" x1="307.33" y1="424.72" x2="307.33" y2="32.79"/>
  <line class="cls-2" x1="313.69" y1="32.79" x2="300.96" y2="32.79"/>
  <line class="cls-2" x1="313.69" y1="424.72" x2="300.96" y2="424.72"/>
  <line class="cls-3" x1="30.29" y1="16.41" x2="243.66" y2="16.41"/>
  <line class="cls-2" x1="243.66" y1="23.11" x2="243.66" y2="10.38"/>
  <line class="cls-2" x1="30.29" y1="22.77" x2="30.29" y2="10.04"/>
  <line class="cls-3" x1="323.94" y1="16.41" x2="480.17" y2="16.41"/>
  <line class="cls-2" x1="480.17" y1="23.11" x2="480.17" y2="10.38"/>
  <line class="cls-2" x1="323.94" y1="22.77" x2="323.94" y2="10.04"/>
  <text class="cls-5" transform="translate(124.02 10.04)"><tspan x="0" y="0">470mm</tspan></text>
  <text class="cls-5" transform="translate(384.32 10.04)"><tspan x="0" y="0">375mm</tspan></text>
  <g>
    <path class="cls-4" d="m7.18,234.61c.02-.23,0-.49-.04-.85-.08-.61-.34-1.19-.76-1.63-.47-.52-1.15-.89-2.07-1.03v.04c.53.43.84,1.05.84,1.83,0,1.4-1.06,2.3-2.39,2.3-1.48,0-2.77-1.07-2.77-2.66s1.3-2.58,3.29-2.58c1.72,0,2.91.58,3.66,1.34.59.6.95,1.43,1.04,2.27.06.38.07.72.06.97h-.86Zm-4.49-.38c.97,0,1.65-.59,1.65-1.5,0-.71-.35-1.26-.82-1.54-.1-.06-.22-.1-.38-.1-1.33,0-2.35.49-2.35,1.6,0,.9.79,1.54,1.9,1.54Z"/>
    <path class="cls-4" d="m3.95,223.88c2.65,0,4.11.98,4.11,2.71,0,1.52-1.43,2.55-4.01,2.58-2.61,0-4.05-1.13-4.05-2.71s1.46-2.58,3.95-2.58Zm.12,4.23c2.03,0,3.18-.62,3.18-1.58,0-1.08-1.26-1.6-3.25-1.6s-3.18.49-3.18,1.58c0,.92,1.13,1.6,3.25,1.6Z"/>
    <path class="cls-4" d="m1.02,218.25v2.97l2,.3c-.02-.18-.05-.35-.05-.64,0-.6.13-1.2.42-1.68.35-.61,1.02-1.12,2-1.12,1.52,0,2.66,1.21,2.66,2.9,0,.85-.24,1.57-.48,1.94l-.8-.26c.19-.32.43-.96.43-1.67,0-1-.65-1.85-1.69-1.85-1.01.01-1.73.68-1.73,2.24,0,.44.05.79.08,1.08l-3.74-.5v-3.73h.89Z"/>
    <path class="cls-4" d="m3.69,216.42c-.6,0-1.09.01-1.57.05v-.92l.94-.05v-.04c-.55-.32-1.07-.86-1.07-1.82,0-.79.48-1.39,1.16-1.64v-.02c-.32-.18-.58-.41-.76-.65-.26-.35-.41-.73-.41-1.28,0-.77.5-1.91,2.52-1.91h3.42v1.03h-3.29c-1.12,0-1.79.41-1.79,1.26,0,.6.44,1.07.96,1.25.14.05.34.08.53.08h3.59v1.03h-3.48c-.92,0-1.6.41-1.6,1.21,0,.66.53,1.14,1.06,1.31.16.06.34.08.52.08h3.5v1.03H3.69Z"/>
    <path class="cls-4" d="m3.69,206.41c-.6,0-1.09.01-1.57.05v-.92l.94-.05v-.04c-.55-.32-1.07-.86-1.07-1.82,0-.79.48-1.39,1.16-1.64v-.02c-.32-.18-.58-.41-.76-.65-.26-.35-.41-.73-.41-1.28,0-.77.5-1.91,2.52-1.91h3.42v1.03h-3.29c-1.12,0-1.79.41-1.79,1.26,0,.6.44,1.07.96,1.25.14.05.34.08.53.08h3.59v1.03h-3.48c-.92,0-1.6.41-1.6,1.21,0,.66.53,1.14,1.06,1.31.16.06.34.08.52.08h3.5v1.03H3.69Z"/>
  </g>
  <text class="cls-5" transform="translate(300.96 235.76) rotate(-90)"><tspan x="0" y="0">905mm</tspan></text>
  <polyline class="cls-7" points="333.96 399.13 333.96 424.72 470.41 424.72 470.41 399.13"/>
</svg>