<?xml version="1.0" encoding="UTF-8"?>
<svg id="Layer_1" data-name="Layer 1" xmlns="http://www.w3.org/2000/svg" viewBox="0 0 597.6 907.15">
  <defs>
    <style>
      .cls-1, .cls-2 {
        stroke-width: 3px;
      }

      .cls-1, .cls-2, .cls-3, .cls-4, .cls-5 {
        stroke: #1d1d1f;
      }

      .cls-1, .cls-2, .cls-4 {
        fill: none;
      }

      .cls-1, .cls-6, .cls-3, .cls-7, .cls-4 {
        stroke-miterlimit: 10;
      }

      .cls-2, .cls-5 {
        stroke-linejoin: round;
      }

      .cls-6 {
        stroke-linecap: round;
      }

      .cls-6, .cls-3, .cls-7, .cls-8 {
        fill: #fff;
      }

      .cls-6, .cls-7 {
        stroke: #231f20;
      }

      .cls-4 {
        stroke-width: 2px;
      }

      .cls-5, .cls-9 {
        fill: #1d1d1f;
      }

      .cls-9, .cls-10, .cls-8 {
        stroke-width: 0px;
      }

      .cls-10 {
        fill: #231f20;
      }
    </style>
  </defs>
  <polygon class="cls-3" points="371.8 833.5 371.8 883.94 381.14 883.94 381.58 833.5 371.8 833.5"/>
  <g>
    <polygon class="cls-9" points="33.35 360.91 33.35 176.77 94.31 23.78 182.93 23.78 243.9 176.77 243.9 360.91 33.35 360.91"/>
    <path class="cls-9" d="m182.42,24.53l60.72,152.38v183.25H34.1v-183.25L94.82,24.53h87.6m1.02-1.5h-89.64l-.38.94-60.72,152.38-.11.27v185.04h212.05v-185.04l-.11-.27L183.82,23.98l-.38-.94h0Z"/>
  </g>
  <polygon class="cls-1" points="34.1 360.16 243.15 360.16 243.39 833.5 232.21 838.88 45.12 838.88 34.1 833.5 34.1 360.16"/>
  <line class="cls-4" x1="34.1" y1="833.5" x2="243.39" y2="833.5"/>
  <path class="cls-9" d="m94.82,24.53h0m0,0l-60.72,152.38,15.26-89.24,45.46-63.14m0-1.5s-.07,0-.11,0c-.24.02-.46.09-.66.21-.14.09-.27.2-.38.33-.03.03-.05.06-.07.1l-45.45,63.13c-.13.19-.22.4-.26.62l-15.26,89.24c-.13.76.33,1.49,1.07,1.7.14.04.27.06.41.06.6,0,1.16-.36,1.39-.94L96.18,25.16c.09-.19.14-.41.14-.63,0-.81-.65-1.48-1.45-1.5-.02,0-.03,0-.05,0h0Zm0,3h0,0Z"/>
  <path class="cls-9" d="m182.42,24.53l46.79,63.14,13.94,89.24L182.42,24.53m0-1.5c-.25,0-.5.06-.73.19-.66.37-.94,1.17-.66,1.87l60.72,152.38c.23.58.79.94,1.39.94.13,0,.26-.02.4-.05.74-.2,1.2-.92,1.09-1.68l-13.94-89.24c-.04-.24-.13-.47-.28-.66l-46.79-63.14c-.29-.39-.74-.61-1.21-.61h0Z"/>
  <path class="cls-9" d="m243.39,885.14v16.81H31.92v-16.81h211.47m0-3H31.92c-1.66,0-3,1.34-3,3v16.81c0,1.66,1.34,3,3,3h211.47c1.66,0,3-1.34,3-3v-16.81c0-1.66-1.34-3-3-3h0Z"/>
  <rect class="cls-9" x="45.12" y="838.88" width="187.09" height="45.05"/>
  <polygon class="cls-3" points="134.33 838.88 134.33 883.94 143.68 883.94 144.11 838.88 134.33 838.88"/>
  <rect class="cls-8" x="106.65" y="350.35" width="65.47" height="1.08" rx=".15" ry=".15"/>
  <g>
    <path class="cls-8" d="m106.68,350.32s-.03-.05-.03-.08v-6.74s.01-.06.03-.08.05-.03.08-.03h1.13c.07,0,.11.04.12.12v5.6s0,.05.05.05h2.02c.07,0,.11.04.12.12v.97s-.01.06-.04.08c-.02.02-.05.03-.08.03h-3.33s-.06-.01-.08-.03Z"/>
    <path class="cls-8" d="m116.71,349.99c-.35-.3-.55-.7-.61-1.21,0-.07-.01-.17-.02-.32v-3.19c0-.6.17-1.08.53-1.44.35-.36.83-.54,1.42-.54.54,0,.98.15,1.33.44s.55.7.62,1.21c0,.07.01.17.02.32v3.19c0,.6-.18,1.08-.53,1.44s-.83.46-1.42.46c-.54,0-.98-.07-1.33-.36Zm1.76-.96c.11-.13.16-.3.16-.51v-3.31s0-.07,0-.12c-.02-.18-.09-.32-.19-.43-.11-.11-.24-.16-.4-.16-.18,0-.32.06-.43.19s-.16.3-.16.51v3.31s0,.07,0,.12c.02.18.09.32.19.43.11.11.24.16.39.16.19,0,.33-.06.44-.19Z"/>
    <path class="cls-8" d="m127.3,350.24l-1.31-6.74v-.02c-.01-.07.02-.11.1-.11h1.18c.07,0,.11.04.12.11l.55,3.59s.02.04.03.04.02-.01.03-.04l.53-3.59c.01-.07.05-.11.13-.11h.98c.07,0,.11.04.12.11l.57,3.59s.01.04.03.04.03-.01.03-.04l.49-3.59c.01-.07.05-.11.13-.11h1.15c.08,0,.11.04.11.13l-1.23,6.74c-.01.07-.05.11-.13.11h-1.05c-.07,0-.11-.04-.12-.11l-.57-3.69s-.01-.04-.02-.04-.02.01-.04.04l-.51,3.69c-.01.07-.05.11-.13.11h-1.03c-.08,0-.12-.04-.13-.11Z"/>
    <path class="cls-8" d="m142.2,343.41s.03.05.03.08v.97s-.01.06-.04.08-.05.03-.08.03h-1.22s-.02,0-.03.01-.01.02-.01.03v5.6s-.01.06-.03.08c-.02.02-.05.03-.08.03h-1.14s-.06-.01-.08-.03c-.02-.02-.03-.05-.03-.08v-5.6s0-.05-.05-.05h-1.16c-.07,0-.11-.04-.12-.12v-.97s.01-.06.04-.08c.02-.02.05-.03.08-.03h3.84s.06.01.08.03Z"/>
    <path class="cls-8" d="m150.83,343.41s.05-.03.08-.03h1.14s.06.01.08.03c.02.02.03.05.03.08v6.74s-.01.06-.03.08c-.02.02-.05.03-.08.03h-1.14s-.06-.01-.08-.03c-.02-.02-.03-.05-.03-.08v-2.72s-.01-.05-.04-.05h-.97s-.06.02-.05.05v2.72s-.01.06-.03.08c-.02.02-.05.03-.09.03h-1.13s-.06-.01-.08-.03c-.02-.02-.03-.05-.03-.08v-6.74s.01-.06.03-.08.05-.03.08-.03h1.13c.07,0,.11.04.12.12v2.71s.01.05.04.05h.97s.04-.02.05-.05v-2.71s.01-.06.03-.08Z"/>
    <path class="cls-8" d="m161.98,344.55s-.05.03-.08.03h-2.02s-.05.02-.04.05v1.57s.01.05.04.05h1.17s.06.01.08.03.03.05.03.08v.97s-.01.06-.04.08-.05.03-.08.03h-1.16s-.06.02-.05.05v1.58s.01.05.05.05h2.01s.06.01.09.03.04.05.04.08v.97s-.01.06-.04.08c-.02.02-.05.03-.08.03h-3.32s-.06-.01-.08-.03c-.02-.02-.03-.05-.03-.08v-6.74s.01-.06.03-.08.05-.03.08-.03h3.32s.06.01.08.03.03.05.03.08v.97s-.01.06-.04.08Z"/>
    <path class="cls-8" d="m170.73,350.25l-.75-2.75s-.03-.04-.05-.04h-.32s-.06.02-.05.05v2.72s-.01.06-.03.08c-.02.02-.05.03-.09.03h-1.13s-.06-.01-.08-.03c-.02-.02-.03-.05-.03-.08v-6.74s.01-.06.03-.08.05-.03.08-.03h1.95c.48,0,.88.16,1.2.47.32.32.52.74.58,1.26.02.16.03.28.03.37,0,.39-.07.73-.22,1.03-.15.3-.35.54-.61.7-.01,0-.02.01-.03.02,0,0,0,.02,0,.03l.89,2.94v.02s0,.06-.02.08c-.02.02-.05.03-.08.03h-1.16c-.07,0-.11-.03-.13-.1Zm-1.17-5.62v1.7s0,.05.05.05h.43c.23,0,.4-.1.53-.3.13-.2.17-.46.13-.79-.03-.22-.1-.39-.22-.52-.12-.13-.26-.19-.44-.19h-.44s-.05.02-.04.05Z"/>
  </g>
  <polygon class="cls-2" points="596.1 833.5 596.1 903.32 571.93 903.32 339.82 903.32 339.82 883.63 571.99 883.94 571.99 833.5 342.98 833.5 341.67 24.53 594.78 24.53 596.1 833.5"/>
  <line class="cls-4" x1="341.9" y1="169.83" x2="594.78" y2="24.53"/>
  <polygon class="cls-5" points="359.87 361.45 340.82 361.45 341.67 24.53 359.87 24.53 359.87 361.45"/>
  <line class="cls-7" x1="32.65" y1="14.18" x2="244.51" y2="14.18"/>
  <line class="cls-6" x1="244.51" y1="20.89" x2="244.51" y2="8.16"/>
  <line class="cls-6" x1="32.65" y1="20.55" x2="32.65" y2="7.82"/>
  <g>
    <path class="cls-10" d="m115.68,8.31c-.47-.22-.81-.52-1.04-.91l.55-.65c.21.3.5.53.87.71.37.18.76.26,1.17.26.53,0,.95-.14,1.27-.43s.47-.66.47-1.12c0-.5-.2-.9-.59-1.19-.4-.29-.94-.43-1.63-.43h-.43v-.88h.42c.58,0,1.05-.15,1.4-.44s.53-.67.53-1.13c0-.38-.12-.68-.37-.89s-.6-.31-1.04-.31c-.41,0-.79.09-1.14.26-.35.17-.64.41-.85.71l-.54-.65c.26-.38.62-.69,1.09-.91.47-.22.98-.33,1.54-.33.73,0,1.31.18,1.76.55.44.36.67.85.67,1.45,0,.47-.14.89-.43,1.27-.28.37-.68.65-1.18.82.62.14,1.09.39,1.42.76.33.37.5.83.5,1.39,0,.47-.12.89-.35,1.25-.23.36-.56.65-.99.85-.43.2-.92.31-1.48.31-.59,0-1.12-.11-1.59-.33Z"/>
    <path class="cls-10" d="m121.84,7.54c-.49-.73-.73-1.81-.73-3.22s.24-2.49.73-3.22c.49-.73,1.19-1.1,2.11-1.1s1.62.37,2.11,1.1c.49.73.73,1.81.73,3.22s-.24,2.49-.73,3.22c-.49.73-1.19,1.1-2.11,1.1s-1.62-.37-2.11-1.1Zm3.41-.62c.3-.58.44-1.45.44-2.6s-.15-2.02-.44-2.6c-.3-.58-.73-.88-1.3-.88s-1,.29-1.3.88c-.3.58-.44,1.45-.44,2.6s.15,2.02.44,2.6c.3.58.73.88,1.3.88s1-.29,1.3-.88Z"/>
    <path class="cls-10" d="m128.44,7.54c-.49-.73-.73-1.81-.73-3.22s.24-2.49.73-3.22c.49-.73,1.19-1.1,2.11-1.1s1.62.37,2.11,1.1c.49.73.73,1.81.73,3.22s-.24,2.49-.73,3.22c-.49.73-1.19,1.1-2.11,1.1s-1.62-.37-2.11-1.1Zm3.41-.62c.3-.58.44-1.45.44-2.6s-.15-2.02-.44-2.6c-.3-.58-.73-.88-1.3-.88s-1,.29-1.3.88c-.3.58-.44,1.45-.44,2.6s.15,2.02.44,2.6c.3.58.73.88,1.3.88s1-.29,1.3-.88Z"/>
    <path class="cls-10" d="m134.58,4.03c0-.61-.02-1.11-.06-1.51h.91c.03.32.05.68.05,1.07h.04c.16-.37.41-.66.76-.87.34-.21.73-.32,1.15-.32s.79.11,1.09.32c.3.22.51.52.61.9.17-.38.42-.67.77-.89.34-.22.73-.33,1.16-.33.66,0,1.17.21,1.54.64s.56,1.02.56,1.78v3.71h-1.01v-3.62c0-.54-.11-.96-.34-1.25s-.56-.43-.99-.43-.77.16-1.04.47c-.27.32-.41.72-.41,1.22v3.61h-1.01v-3.58c0-.58-.1-1.02-.31-1.3-.21-.28-.52-.43-.95-.43-.26,0-.51.08-.74.24s-.42.37-.56.64c-.14.26-.21.55-.21.85v3.58h-1.01v-4.49Z"/>
    <path class="cls-10" d="m144.65,4.03c0-.61-.02-1.11-.06-1.51h.91c.03.32.05.68.05,1.07h.04c.16-.37.41-.66.76-.87.34-.21.73-.32,1.15-.32s.79.11,1.09.32c.3.22.51.52.61.9.17-.38.42-.67.77-.89.34-.22.73-.33,1.16-.33.66,0,1.17.21,1.54.64s.56,1.02.56,1.78v3.71h-1.01v-3.62c0-.54-.11-.96-.34-1.25s-.56-.43-.99-.43-.77.16-1.04.47c-.27.32-.41.72-.41,1.22v3.61h-1.01v-3.58c0-.58-.1-1.02-.31-1.3-.21-.28-.52-.43-.95-.43-.26,0-.51.08-.74.24s-.42.37-.56.64c-.14.26-.21.55-.21.85v3.58h-1.01v-4.49Z"/>
  </g>
  <line class="cls-7" x1="340.61" y1="14.78" x2="596.1" y2="14.78"/>
  <line class="cls-6" x1="596.1" y1="20.89" x2="596.1" y2="8.16"/>
  <line class="cls-6" x1="340.61" y1="21.15" x2="340.61" y2="8.42"/>
  <g>
    <path class="cls-10" d="m448.17,9.03c-.47-.22-.81-.52-1.04-.91l.55-.65c.21.3.5.53.87.71.37.18.76.26,1.17.26.53,0,.95-.14,1.27-.43.32-.29.47-.66.47-1.12,0-.5-.2-.9-.59-1.19-.4-.29-.94-.43-1.63-.43h-.43v-.88h.42c.58,0,1.05-.15,1.4-.44.35-.29.53-.67.53-1.13,0-.38-.12-.68-.37-.89s-.6-.31-1.04-.31c-.41,0-.79.09-1.14.26-.35.17-.64.41-.85.71l-.54-.65c.26-.38.62-.69,1.09-.91s.98-.33,1.54-.33c.73,0,1.31.18,1.76.55.44.36.67.85.67,1.45,0,.47-.14.89-.43,1.27-.28.37-.68.65-1.18.82.62.14,1.09.39,1.42.76.33.37.5.83.5,1.39,0,.47-.12.89-.35,1.25-.23.36-.56.65-.99.85-.43.2-.92.31-1.48.31-.59,0-1.12-.11-1.59-.33Z"/>
    <path class="cls-10" d="m454.77,9.03c-.47-.22-.81-.52-1.04-.91l.55-.65c.21.3.5.53.87.71.37.18.76.26,1.17.26.53,0,.95-.14,1.27-.43.32-.29.47-.66.47-1.12,0-.5-.2-.9-.59-1.19-.4-.29-.94-.43-1.63-.43h-.43v-.88h.42c.58,0,1.05-.15,1.4-.44.35-.29.53-.67.53-1.13,0-.38-.12-.68-.37-.89s-.6-.31-1.04-.31c-.41,0-.79.09-1.14.26-.35.17-.64.41-.85.71l-.54-.65c.26-.38.62-.69,1.09-.91s.98-.33,1.54-.33c.73,0,1.31.18,1.76.55.44.36.67.85.67,1.45,0,.47-.14.89-.43,1.27-.28.37-.68.65-1.18.82.62.14,1.09.39,1.42.76.33.37.5.83.5,1.39,0,.47-.12.89-.35,1.25-.23.36-.56.65-.99.85-.43.2-.92.31-1.48.31-.59,0-1.12-.11-1.59-.33Z"/>
    <path class="cls-10" d="m460.93,8.26c-.49-.73-.73-1.81-.73-3.22s.24-2.49.73-3.22c.49-.73,1.19-1.1,2.11-1.1s1.62.37,2.11,1.1.73,1.81.73,3.22-.24,2.49-.73,3.22-1.19,1.1-2.11,1.1-1.62-.37-2.11-1.1Zm3.41-.62c.3-.58.44-1.45.44-2.6s-.15-2.02-.44-2.6c-.3-.58-.73-.88-1.3-.88s-1,.29-1.3.88c-.3.58-.44,1.45-.44,2.6s.15,2.02.44,2.6c.3.58.73.88,1.3.88s1-.29,1.3-.88Z"/>
    <path class="cls-10" d="m467.07,4.75c0-.61-.02-1.11-.06-1.51h.91c.03.32.05.68.05,1.07h.04c.16-.37.41-.66.76-.87s.73-.32,1.15-.32.79.11,1.09.32c.3.22.51.52.61.9.17-.38.42-.67.77-.89.34-.22.73-.33,1.16-.33.66,0,1.17.21,1.54.64s.56,1.02.56,1.78v3.71h-1.01v-3.62c0-.54-.11-.96-.34-1.25-.23-.29-.56-.43-.99-.43s-.77.16-1.04.47c-.27.32-.41.72-.41,1.22v3.61h-1.01v-3.58c0-.58-.1-1.02-.31-1.3-.21-.28-.52-.43-.95-.43-.26,0-.51.08-.74.24-.23.16-.42.37-.56.64-.14.26-.21.55-.21.85v3.58h-1.01v-4.49Z"/>
    <path class="cls-10" d="m477.14,4.75c0-.61-.02-1.11-.06-1.51h.91c.03.32.05.68.05,1.07h.04c.16-.37.41-.66.76-.87s.73-.32,1.15-.32.79.11,1.09.32c.3.22.51.52.61.9.17-.38.42-.67.77-.89.34-.22.73-.33,1.16-.33.66,0,1.17.21,1.54.64s.56,1.02.56,1.78v3.71h-1.01v-3.62c0-.54-.11-.96-.34-1.25-.23-.29-.56-.43-.99-.43s-.77.16-1.04.47c-.27.32-.41.72-.41,1.22v3.61h-1.01v-3.58c0-.58-.1-1.02-.31-1.3-.21-.28-.52-.43-.95-.43-.26,0-.51.08-.74.24-.23.16-.42.37-.56.64-.14.26-.21.55-.21.85v3.58h-1.01v-4.49Z"/>
  </g>
  <line class="cls-7" x1="14.54" y1="904.87" x2="14.54" y2="23.25"/>
  <line class="cls-6" x1="21.25" y1="23.25" x2="8.52" y2="23.25"/>
  <line class="cls-6" x1="20.9" y1="904.87" x2="8.18" y2="904.87"/>
  <g>
    <path class="cls-10" d="m7.64,479.77v-1.44H1.42l.97,1.66h-1.01l-1.26-2.05v-.71h7.52v-1.43h.88v3.97h-.88Z"/>
    <path class="cls-10" d="m7.57,473.95c-.42-.58-.91-1.15-1.49-1.72s-1.2-1.06-1.85-1.46c-.66-.4-1.28-.6-1.86-.6-.45,0-.8.13-1.06.38-.26.26-.39.6-.39,1.04,0,.4.1.78.29,1.13.19.36.45.64.77.85l-.66.59c-.41-.25-.73-.6-.96-1.06-.23-.46-.35-.97-.35-1.52,0-.78.21-1.4.63-1.86s.99-.68,1.7-.68c.85,0,1.73.33,2.65,1s1.81,1.49,2.66,2.45v-3.83h.88v5.28h-.95Z"/>
    <path class="cls-10" d="m7.54,466.93c-.73.49-1.81.73-3.22.73s-2.49-.24-3.22-.73c-.73-.49-1.1-1.19-1.1-2.11s.37-1.62,1.1-2.11,1.81-.73,3.22-.73,2.49.24,3.22.73,1.1,1.19,1.1,2.11-.37,1.62-1.1,2.11Zm-.62-3.41c-.58-.3-1.45-.44-2.6-.44s-2.02.15-2.6.44c-.58.3-.88.73-.88,1.3s.29,1,.88,1.3c.58.29,1.45.44,2.6.44s2.02-.15,2.6-.44c.58-.3.88-.73.88-1.3s-.29-1-.88-1.3Z"/>
    <path class="cls-10" d="m7.54,460.33c-.73.49-1.81.73-3.22.73s-2.49-.24-3.22-.73c-.73-.49-1.1-1.19-1.1-2.11s.37-1.62,1.1-2.11c.73-.49,1.81-.73,3.22-.73s2.49.24,3.22.73c.73.49,1.1,1.19,1.1,2.11s-.37,1.62-1.1,2.11Zm-.62-3.41c-.58-.3-1.45-.44-2.6-.44s-2.02.15-2.6.44c-.58.3-.88.73-.88,1.3s.29,1,.88,1.3c.58.3,1.45.44,2.6.44s2.02-.15,2.6-.44c.58-.3.88-.73.88-1.3s-.29-1-.88-1.3Z"/>
    <path class="cls-10" d="m4.03,454.19c-.61,0-1.11.02-1.51.06v-.91c.32-.03.68-.05,1.07-.05v-.04c-.37-.16-.66-.41-.87-.76-.21-.34-.32-.73-.32-1.15s.11-.79.32-1.09c.22-.3.52-.51.9-.61-.38-.17-.67-.42-.89-.77-.22-.34-.33-.73-.33-1.16,0-.66.21-1.17.64-1.54s1.02-.56,1.78-.56h3.71v1.01h-3.62c-.54,0-.96.11-1.25.34s-.43.56-.43.99.16.77.47,1.04c.32.27.72.41,1.22.41h3.61v1.01h-3.58c-.58,0-1.02.1-1.3.31-.28.21-.43.52-.43.95,0,.26.08.51.24.74s.37.42.64.56c.26.14.55.21.85.21h3.58v1.01h-4.49Z"/>
    <path class="cls-10" d="m4.03,444.12c-.61,0-1.11.02-1.51.06v-.91c.32-.03.68-.05,1.07-.05v-.04c-.37-.16-.66-.41-.87-.76-.21-.34-.32-.73-.32-1.15s.11-.79.32-1.09c.22-.3.52-.51.9-.61-.38-.17-.67-.42-.89-.77-.22-.34-.33-.73-.33-1.16,0-.66.21-1.17.64-1.54s1.02-.56,1.78-.56h3.71v1.01h-3.62c-.54,0-.96.11-1.25.34s-.43.56-.43.99.16.77.47,1.04c.32.27.72.41,1.22.41h3.61v1.01h-3.58c-.58,0-1.02.1-1.3.31-.28.21-.43.52-.43.95,0,.26.08.51.24.74s.37.42.64.56c.26.14.55.21.85.21h3.58v1.01h-4.49Z"/>
  </g>
  <line class="cls-7" x1="320.52" y1="906.65" x2="320.52" y2="25.03"/>
  <line class="cls-6" x1="327.22" y1="25.03" x2="314.5" y2="25.03"/>
  <line class="cls-6" x1="326.88" y1="906.65" x2="314.16" y2="906.65"/>
  <g>
    <path class="cls-10" d="m313.62,481.55v-1.44h-6.23l.97,1.66h-1.01l-1.26-2.05v-.71h7.52v-1.43h.88v3.97h-.88Z"/>
    <path class="cls-10" d="m313.55,475.73c-.42-.58-.91-1.15-1.49-1.72-.58-.57-1.2-1.06-1.85-1.46s-1.28-.6-1.86-.6c-.45,0-.8.13-1.06.38-.26.26-.39.6-.39,1.04,0,.4.1.78.29,1.13.19.36.45.64.77.85l-.66.59c-.41-.25-.73-.6-.96-1.06-.23-.46-.35-.97-.35-1.52,0-.78.21-1.4.63-1.86s.99-.68,1.7-.68c.85,0,1.73.33,2.65,1s1.81,1.49,2.66,2.45v-3.83h.88v5.28h-.95Z"/>
    <path class="cls-10" d="m313.52,468.71c-.73.49-1.81.73-3.22.73s-2.49-.24-3.22-.73-1.1-1.19-1.1-2.11.37-1.62,1.1-2.11c.73-.49,1.81-.73,3.22-.73s2.49.24,3.22.73c.73.49,1.1,1.19,1.1,2.11s-.37,1.62-1.1,2.11Zm-.62-3.41c-.58-.3-1.45-.44-2.6-.44s-2.02.15-2.6.44c-.58.3-.88.73-.88,1.3s.29,1,.88,1.29c.58.3,1.45.44,2.6.44s2.02-.15,2.6-.44c.58-.29.88-.73.88-1.29s-.29-1-.88-1.3Z"/>
    <path class="cls-10" d="m313.52,462.11c-.73.49-1.81.73-3.22.73s-2.49-.24-3.22-.73-1.1-1.19-1.1-2.11.37-1.62,1.1-2.11c.73-.49,1.81-.73,3.22-.73s2.49.24,3.22.73c.73.49,1.1,1.19,1.1,2.11s-.37,1.62-1.1,2.11Zm-.62-3.41c-.58-.3-1.45-.44-2.6-.44s-2.02.15-2.6.44c-.58.3-.88.73-.88,1.3s.29,1,.88,1.3c.58.3,1.45.44,2.6.44s2.02-.15,2.6-.44c.58-.3.88-.73.88-1.3s-.29-1-.88-1.3Z"/>
    <path class="cls-10" d="m310.01,455.96c-.61,0-1.11.02-1.51.06v-.91c.32-.03.68-.05,1.07-.05v-.04c-.37-.16-.66-.41-.87-.76-.21-.34-.32-.73-.32-1.15s.11-.79.32-1.09c.22-.3.52-.51.9-.61-.38-.17-.67-.42-.89-.77-.22-.34-.33-.73-.33-1.16,0-.66.21-1.17.64-1.54s1.02-.56,1.78-.56h3.71v1.01h-3.62c-.54,0-.96.11-1.25.34s-.43.56-.43.99.16.77.47,1.04c.32.27.72.41,1.22.41h3.61v1.01h-3.58c-.58,0-1.02.1-1.3.31-.28.21-.43.52-.43.95,0,.26.08.51.24.74s.37.42.64.56c.26.14.55.21.85.21h3.58v1.01h-4.49Z"/>
    <path class="cls-10" d="m310.01,445.89c-.61,0-1.11.02-1.51.06v-.91c.32-.03.68-.05,1.07-.05v-.04c-.37-.16-.66-.41-.87-.76-.21-.34-.32-.73-.32-1.15s.11-.79.32-1.09c.22-.3.52-.51.9-.61-.38-.17-.67-.42-.89-.77-.22-.34-.33-.73-.33-1.16,0-.66.21-1.17.64-1.54s1.02-.56,1.78-.56h3.71v1.01h-3.62c-.54,0-.96.11-1.25.34s-.43.56-.43.99.16.77.47,1.04c.32.27.72.41,1.22.41h3.61v1.01h-3.58c-.58,0-1.02.1-1.3.31-.28.21-.43.52-.43.95,0,.26.08.51.24.74s.37.42.64.56c.26.14.55.21.85.21h3.58v1.01h-4.49Z"/>
  </g>
</svg>