<?xml version="1.0" encoding="UTF-8"?>
<svg xmlns="http://www.w3.org/2000/svg" viewBox="0 0 1273.78 1282.5">
  <defs>
    <style>
      .cls-1, .cls-2, .cls-3, .cls-4, .cls-5, .cls-6 {
        stroke-miterlimit: 10;
      }

      .cls-1, .cls-2, .cls-3, .cls-7 {
        fill: #fff;
      }

      .cls-1, .cls-4 {
        stroke: #1d1d1f;
      }

      .cls-1, .cls-4, .cls-5 {
        stroke-width: 2px;
      }

      .cls-2 {
        stroke-linecap: round;
      }

      .cls-2, .cls-3 {
        stroke: #231f20;
      }

      .cls-4, .cls-5, .cls-6 {
        fill: none;
      }

      .cls-5, .cls-6 {
        stroke: #000;
      }

      .cls-8, .cls-9, .cls-10, .cls-7 {
        stroke-width: 0px;
      }

      .cls-9 {
        fill: #1d1d1f;
      }

      .cls-10 {
        fill: #231f20;
      }
    </style>
  </defs>
  <g id="Layer_1" data-name="Layer 1">
    <path class="cls-4" d="m114.86,364.95V99.63h77.5s184.17-16.41,493.26-16.41,494.17,16.41,494.17,16.41h74.76v261.67l18.23,11.85v849.75H93.89V373.16l20.97-8.21Z"/>
    <path class="cls-4" d="m189.62,126.07l3.65,238.88s219.39,4.77,490.64,4.77,491.32-4.77,491.32-4.77V122.43s-256.2-22.79-491.89-22.79-493.71,26.44-493.71,26.44Z"/>
    <line class="cls-5" x1="114.86" y1="364.95" x2="193.27" y2="364.95"/>
    <line class="cls-5" x1="1175.22" y1="364.95" x2="1254.54" y2="361.3"/>
    <line class="cls-5" x1="93.89" y1="373.16" x2="1272.78" y2="373.16"/>
  </g>
  <g id="Layer_3" data-name="Layer 3">
    <polygon class="cls-9" points="116.68 398.69 163.18 398.69 461.32 398.69 461.32 1196.47 116.68 1190.09 116.68 398.69"/>
    <polygon class="cls-1" points="166.12 399.7 166.49 1188.93 183.96 1189.23 183.96 399.7 166.12 399.7"/>
    <polygon class="cls-1" points="223.28 399.7 223.65 1189.88 241.12 1190.15 241.12 399.7 223.28 399.7"/>
    <polygon class="cls-1" points="279.61 399.7 279.94 1190.7 296.47 1191.01 297.45 399.7 279.61 399.7"/>
    <polygon class="cls-1" points="337.77 399.7 338.14 1191.76 355.61 1192.08 355.61 399.7 337.77 399.7"/>
    <polygon class="cls-1" points="394.08 399.7 394.46 1192.62 411.92 1192.95 411.92 399.7 394.08 399.7"/>
    <polyline class="cls-9" points="900.62 1194.7 900.62 395.15 1246.03 401.55 1246.03 1194.7"/>
    <polygon class="cls-1" points="1196.48 1193.68 1196.11 402.71 1178.6 402.41 1178.6 1193.68 1196.48 1193.68"/>
    <polygon class="cls-1" points="1139.19 1193.68 1138.82 401.75 1121.31 401.49 1121.31 1193.68 1139.19 1193.68"/>
    <polygon class="cls-1" points="1082.73 1193.68 1082.41 400.93 1065.84 400.63 1064.85 1193.68 1082.73 1193.68"/>
    <polygon class="cls-1" points="1024.45 1193.68 1024.08 399.87 1006.57 399.55 1006.57 1193.68 1024.45 1193.68"/>
    <polygon class="cls-1" points="968.01 1193.68 967.64 399 950.13 398.68 950.13 1193.68 968.01 1193.68"/>
    <polyline class="cls-9" points="900.62 1189.18 900.62 398.69 1246.03 396.03 1246.03 1189.18"/>
    <polygon class="cls-1" points="1196.48 1193.68 1196.11 400.63 1178.6 400.83 1178.6 1192.1 1196.48 1193.68"/>
    <polygon class="cls-1" points="1139.19 1193.68 1138.82 401.75 1121.31 401.49 1121.31 1193.68 1139.19 1193.68"/>
    <polygon class="cls-1" points="1082.73 1193.68 1082.41 400.93 1065.84 400.63 1064.85 1193.68 1082.73 1193.68"/>
    <polygon class="cls-1" points="1024.45 1193.68 1024.08 399.87 1006.57 399.55 1006.57 1193.68 1024.45 1193.68"/>
    <polygon class="cls-1" points="968.01 1193.68 967.64 399 950.13 398.68 950.13 1193.68 968.01 1193.68"/>
    <rect class="cls-8" x="631.88" y="417.21" width="101.08" height="1.68" rx=".15" ry=".15"/>
    <g>
      <path class="cls-8" d="m631.93,417.15s-.05-.08-.05-.13v-10.41c0-.05.02-.09.05-.13s.07-.05.12-.05h1.74c.11,0,.18.06.19.18v8.65c-.01.05,0,.08.07.08h3.12c.11,0,.18.06.19.18v1.49c0,.05-.02.1-.05.13-.03.04-.07.05-.12.05h-5.14c-.05,0-.09-.02-.13-.05Z"/>
      <path class="cls-8" d="m647.42,416.65c-.53-.46-.85-1.08-.95-1.87-.01-.1-.02-.27-.03-.49v-4.93c0-.92.27-1.66.82-2.22.55-.55,1.28-.83,2.19-.83.83,0,1.52.23,2.05.69s.86,1.08.95,1.87c.01.1.02.27.03.49v4.93c0,.92-.27,1.66-.82,2.22s-1.29.71-2.2.71c-.83,0-1.51-.1-2.05-.56Zm2.71-1.48c.17-.2.25-.46.25-.79v-5.11s0-.1,0-.18c-.03-.28-.13-.5-.3-.66-.16-.16-.37-.25-.61-.25-.28,0-.5.1-.66.3s-.25.46-.25.79v5.11s0,.1,0,.18c.03.28.13.5.3.66.16.16.36.25.6.25.29,0,.51-.1.68-.3Z"/>
      <path class="cls-8" d="m663.76,417.04l-2.02-10.41v-.03c-.02-.11.04-.17.16-.17h1.82c.11,0,.18.06.19.17l.85,5.54s.03.06.05.06.03-.02.04-.06l.81-5.54c.02-.11.08-.17.19-.17h1.51c.11,0,.18.06.19.17l.88,5.54s.02.06.05.06.04-.02.05-.06l.75-5.54c.02-.11.08-.17.2-.17h1.77c.12,0,.18.07.16.2l-1.89,10.41c-.02.11-.08.17-.19.17h-1.62c-.11,0-.18-.06-.19-.17l-.88-5.7s-.02-.06-.04-.06-.04.02-.05.06l-.79,5.7c-.02.11-.08.17-.19.17h-1.59c-.12,0-.19-.06-.21-.17Z"/>
      <path class="cls-8" d="m686.77,406.49s.05.08.05.13v1.49c0,.05-.02.09-.05.13s-.07.05-.12.05h-1.88s-.04,0-.05.02-.02.03-.02.05v8.65c0,.05-.02.1-.05.13-.03.04-.07.05-.12.05h-1.75c-.05,0-.09-.02-.13-.05-.04-.04-.05-.08-.05-.13v-8.65c.01-.05,0-.08-.07-.08h-1.79c-.11,0-.18-.06-.19-.18v-1.49c0-.05.02-.09.05-.13.03-.04.07-.05.12-.05h5.93c.05,0,.09.02.13.05Z"/>
      <path class="cls-8" d="m700.09,406.49s.07-.05.12-.05h1.75c.05,0,.09.02.13.05.03.04.05.08.05.13v10.41c0,.05-.02.1-.05.13-.03.04-.07.05-.12.05h-1.75c-.05,0-.09-.02-.13-.05-.04-.04-.05-.08-.05-.13v-4.2c0-.05-.02-.08-.06-.08h-1.49c-.06,0-.09.03-.08.08v4.2c0,.05-.02.1-.05.13-.04.04-.08.05-.13.05h-1.74c-.05,0-.09-.02-.13-.05-.03-.04-.05-.08-.05-.13v-10.41c0-.05.02-.09.05-.13s.07-.05.12-.05h1.74c.11,0,.18.06.19.18v4.19c0,.05.02.08.06.08h1.49s.07-.03.08-.08v-4.19c0-.05.02-.09.05-.13Z"/>
      <path class="cls-8" d="m717.31,408.24s-.07.05-.12.05h-3.12c-.05,0-.07.03-.07.08v2.43c0,.05.02.08.06.08h1.8c.05,0,.09.02.13.05s.05.08.05.13v1.49c0,.05-.02.09-.05.13s-.07.05-.12.05h-1.79c-.06,0-.09.03-.08.08v2.45c0,.05.02.08.08.08h3.11c.05,0,.1.02.14.05s.06.08.05.13v1.49c0,.05-.02.1-.05.13-.03.04-.07.05-.12.05h-5.13c-.05,0-.09-.02-.13-.05-.03-.04-.05-.08-.05-.13v-10.41c0-.05.02-.09.05-.13s.07-.05.12-.05h5.13c.05,0,.09.02.13.05s.05.08.05.13v1.49c0,.05-.02.09-.05.13Z"/>
      <path class="cls-8" d="m730.81,417.05l-1.15-4.25s-.05-.06-.08-.06h-.49c-.06,0-.09.03-.08.08v4.2c0,.05-.02.1-.05.13-.04.04-.08.05-.13.05h-1.74c-.05,0-.09-.02-.13-.05-.03-.04-.05-.08-.05-.13v-10.41c0-.05.02-.09.05-.13s.07-.05.12-.05h3.02c.74,0,1.36.24,1.86.73.5.49.8,1.14.9,1.95.03.25.04.44.04.57,0,.59-.11,1.13-.34,1.59-.22.47-.54.83-.94,1.08-.02.01-.03.02-.04.04,0,.02,0,.03,0,.05l1.37,4.54v.03c.01.05,0,.1-.03.13-.03.04-.07.05-.12.05h-1.79c-.1,0-.17-.05-.2-.15Zm-1.8-8.68v2.63c-.01.05,0,.08.07.08h.66c.35,0,.62-.15.82-.46.2-.31.27-.71.2-1.22-.04-.34-.15-.61-.34-.81-.18-.2-.41-.3-.68-.3h-.68c-.05,0-.07.03-.07.08Z"/>
    </g>
    <path class="cls-8" d="m203.48,139.02v209.79s270.75,9.27,480.19,8.11,480.65.1,480.65.1v-218s-155.96-22.02-492.92-22.02-467.93,22.02-467.93,22.02Z"/>
    <rect class="cls-7" x="613.7" y="444.46" width="65.47" height="1.08" rx=".15" ry=".15"/>
    <path class="cls-7" d="m561.71,114.46v245.12s45.26,1.92,109.7,2.09c36.7.1,79.62-.37,123.94-2.09V113.06s-53.59-7.25-123.94-6.66c-34.03.28-71.99,2.4-109.7,8.06Z"/>
    <path class="cls-8" d="m147.97,1222.91v53.86s561.59,12.88,1070.47,0v-53.86H147.97Z"/>
    <line class="cls-6" x1="676.41" y1="106.4" x2="676.41" y2="361.66"/>
    <line class="cls-3" x1="32.22" y1="1273.28" x2="32.22" y2="99.63"/>
    <line class="cls-2" x1="38.92" y1="99.63" x2="26.2" y2="99.63"/>
    <line class="cls-2" x1="38.58" y1="1273.28" x2="25.86" y2="1273.28"/>
    <g>
      <path class="cls-10" d="m16.65,739.44v-3.14H3.08l2.12,3.61h-2.2l-2.74-4.47v-1.54h16.39v-3.11h1.91v8.65h-1.91Z"/>
      <path class="cls-10" d="m16.65,725.06v-3.14H3.08l2.12,3.61h-2.2l-2.74-4.47v-1.54h16.39v-3.11h1.91v8.65h-1.91Z"/>
      <path class="cls-10" d="m15.42,704.91v8.39h-2.04l-13.12-7.87v-2.93h13.17v-2.06h1.99v2.06h3.14v2.41h-3.14Zm-1.99,0H3.06l10.38,6.19v-6.19Z"/>
      <path class="cls-10" d="m16.43,697.1c-1.59,1.06-3.93,1.59-7.02,1.59s-5.42-.53-7.02-1.59c-1.59-1.06-2.39-2.6-2.39-4.6s.8-3.54,2.39-4.6c1.59-1.06,3.93-1.59,7.02-1.59s5.42.53,7.02,1.59c1.59,1.06,2.39,2.6,2.39,4.6s-.8,3.54-2.39,4.6Zm-1.35-7.42c-1.27-.64-3.16-.97-5.67-.97s-4.4.32-5.67.97c-1.27.65-1.91,1.59-1.91,2.82s.64,2.18,1.91,2.82c1.27.65,3.16.97,5.67.97s4.4-.32,5.67-.97c1.27-.64,1.91-1.58,1.91-2.82s-.64-2.18-1.91-2.82Z"/>
      <path class="cls-10" d="m8.78,683.72c-1.32,0-2.42.04-3.29.13v-1.99c.7-.07,1.47-.1,2.33-.1v-.08c-.8-.35-1.43-.9-1.9-1.65-.46-.75-.69-1.59-.69-2.51s.24-1.72.71-2.38c.47-.66,1.12-1.11,1.96-1.33-.82-.37-1.47-.92-1.95-1.67-.48-.75-.72-1.59-.72-2.54,0-1.43.46-2.55,1.39-3.36.92-.81,2.21-1.21,3.87-1.21h8.08v2.2h-7.89c-1.18,0-2.09.25-2.72.75-.63.5-.94,1.21-.94,2.16s.34,1.68,1.03,2.27c.69.59,1.57.89,2.65.89h7.87v2.2h-7.79c-1.27,0-2.22.23-2.84.68s-.93,1.14-.93,2.06c0,.58.17,1.12.52,1.62.35.51.81.91,1.39,1.22s1.19.46,1.86.46h7.79v2.2h-9.78Z"/>
      <path class="cls-10" d="m8.78,661.79c-1.32,0-2.42.04-3.29.13v-1.99c.7-.07,1.47-.1,2.33-.1v-.08c-.8-.35-1.43-.9-1.9-1.65-.46-.75-.69-1.59-.69-2.51s.24-1.72.71-2.38c.47-.66,1.12-1.11,1.96-1.33-.82-.37-1.47-.92-1.95-1.67-.48-.75-.72-1.59-.72-2.54,0-1.43.46-2.55,1.39-3.36.92-.81,2.21-1.21,3.87-1.21h8.08v2.2h-7.89c-1.18,0-2.09.25-2.72.75-.63.5-.94,1.21-.94,2.16s.34,1.68,1.03,2.27c.69.59,1.57.89,2.65.89h7.87v2.2h-7.79c-1.27,0-2.22.23-2.84.68s-.93,1.14-.93,2.06c0,.58.17,1.12.52,1.62.35.51.81.91,1.39,1.22s1.19.46,1.86.46h7.79v2.2h-9.78Z"/>
    </g>
    <line class="cls-3" x1="93.71" y1="32.22" x2="1267.36" y2="32.22"/>
    <line class="cls-2" x1="1267.36" y1="38.93" x2="1267.36" y2="26.2"/>
    <line class="cls-2" x1="93.71" y1="38.59" x2="93.71" y2="25.86"/>
    <g>
      <path class="cls-10" d="m627.55,16.65h3.14V3.08l-3.61,2.12v-2.2l4.47-2.74h1.54v16.39h3.11v1.91h-8.65v-1.91Z"/>
      <path class="cls-10" d="m641.92,16.65h3.14V3.08l-3.61,2.12v-2.2l4.47-2.74h1.54v16.39h3.11v1.91h-8.65v-1.91Z"/>
      <path class="cls-10" d="m656.47,18.1c-1.02-.48-1.77-1.14-2.26-1.97l1.2-1.41c.45.65,1.08,1.16,1.89,1.54.81.38,1.66.58,2.55.58,1.15,0,2.07-.31,2.76-.94s1.03-1.44,1.03-2.43c0-1.1-.43-1.96-1.29-2.59-.86-.63-2.04-.94-3.54-.94h-.94v-1.91h.92c1.27,0,2.29-.32,3.06-.95.77-.64,1.15-1.46,1.15-2.47,0-.84-.27-1.48-.81-1.93-.54-.45-1.3-.68-2.27-.68-.89,0-1.72.19-2.48.56-.77.38-1.38.89-1.86,1.56l-1.18-1.41c.56-.84,1.35-1.49,2.37-1.97,1.02-.48,2.14-.72,3.36-.72,1.59,0,2.86.4,3.83,1.19.97.79,1.45,1.84,1.45,3.15,0,1.03-.31,1.95-.93,2.76-.62.81-1.48,1.41-2.57,1.79,1.34.3,2.37.85,3.1,1.66.72.81,1.08,1.82,1.08,3.02,0,1.03-.25,1.94-.76,2.73-.5.79-1.22,1.41-2.16,1.86s-2.01.67-3.23.67c-1.29,0-2.44-.24-3.46-.72Z"/>
      <path class="cls-10" d="m669.89,16.43c-1.06-1.59-1.59-3.93-1.59-7.02s.53-5.42,1.59-7.02c1.06-1.59,2.6-2.39,4.6-2.39s3.54.8,4.6,2.39c1.06,1.59,1.59,3.93,1.59,7.02s-.53,5.42-1.59,7.02c-1.06,1.59-2.6,2.39-4.6,2.39s-3.54-.8-4.6-2.39Zm7.42-1.35c.64-1.27.97-3.16.97-5.67s-.32-4.4-.97-5.67c-.65-1.27-1.59-1.91-2.82-1.91s-2.18.64-2.82,1.91c-.65,1.27-.97,3.16-.97,5.67s.32,4.4.97,5.67c.64,1.27,1.58,1.91,2.82,1.91s2.18-.64,2.82-1.91Z"/>
      <path class="cls-10" d="m683.27,8.78c0-1.32-.04-2.42-.13-3.29h1.99c.07.7.1,1.47.1,2.33h.08c.35-.8.9-1.43,1.65-1.9.75-.46,1.59-.69,2.51-.69s1.72.24,2.38.71c.66.47,1.11,1.12,1.33,1.96.37-.82.92-1.47,1.67-1.95.75-.48,1.59-.72,2.54-.72,1.43,0,2.55.46,3.36,1.39.81.92,1.21,2.21,1.21,3.87v8.08h-2.2v-7.89c0-1.18-.25-2.09-.75-2.72-.5-.63-1.21-.94-2.16-.94s-1.68.34-2.27,1.03c-.59.69-.89,1.57-.89,2.65v7.87h-2.2v-7.79c0-1.27-.23-2.22-.68-2.84s-1.14-.93-2.06-.93c-.58,0-1.12.17-1.62.52-.51.35-.91.81-1.22,1.39s-.46,1.19-.46,1.86v7.79h-2.2v-9.78Z"/>
      <path class="cls-10" d="m705.2,8.78c0-1.32-.04-2.42-.13-3.29h1.99c.07.7.1,1.47.1,2.33h.08c.35-.8.9-1.43,1.65-1.9.75-.46,1.59-.69,2.51-.69s1.72.24,2.38.71c.66.47,1.11,1.12,1.33,1.96.37-.82.92-1.47,1.67-1.95.75-.48,1.59-.72,2.54-.72,1.43,0,2.55.46,3.36,1.39.81.92,1.21,2.21,1.21,3.87v8.08h-2.2v-7.89c0-1.18-.25-2.09-.75-2.72-.5-.63-1.21-.94-2.16-.94s-1.68.34-2.27,1.03c-.59.69-.89,1.57-.89,2.65v7.87h-2.2v-7.79c0-1.27-.23-2.22-.68-2.84s-1.14-.93-2.06-.93c-.58,0-1.12.17-1.62.52-.51.35-.91.81-1.22,1.39s-.46,1.19-.46,1.86v7.79h-2.2v-9.78Z"/>
    </g>
  </g>
</svg>